<svg width="19" height="19" viewBox="0 0 19 19" fill="none" xmlns="http://www.w3.org/2000/svg">
<path d="M13.984 2.97646L13.9254 6.14881C13.917 6.58407 14.1933 7.16164 14.5448 7.42113L16.6207 8.99473C17.9516 9.99918 17.7339 11.2296 16.1436 11.7319L13.44 12.5773C12.988 12.7195 12.5108 13.2134 12.3937 13.6738L11.7491 16.1347C11.2385 18.0766 9.96622 18.2691 8.91155 16.5616L7.43836 14.176C7.17051 13.7407 6.53437 13.4143 6.03214 13.4394L3.23647 13.5817C1.23595 13.6822 0.666757 12.5271 1.97254 11.0036L3.62985 9.07844C3.93956 8.71852 4.08185 8.0489 3.93955 7.5969L3.09419 4.89326C2.60034 3.30289 3.48758 2.42401 5.06958 2.94297L7.53885 3.7549C7.95737 3.88883 8.58513 3.79674 8.93669 3.53726L11.5148 1.67904C12.9043 0.674595 14.0175 1.26054 13.984 2.97646Z" stroke="#614731" stroke-width="1.25556" stroke-linecap="round" stroke-linejoin="round"/>
</svg>
