<svg width="21" height="21" viewBox="0 0 21 21" fill="none" xmlns="http://www.w3.org/2000/svg">
<path d="M16.0108 2.31249L15.9378 6.2604C15.9274 6.80207 16.2712 7.52082 16.7087 7.84374L19.292 9.80208C20.9483 11.0521 20.6774 12.5833 18.6983 13.2083L15.3337 14.2604C14.7712 14.4375 14.1775 15.0521 14.0316 15.625L13.2295 18.6875C12.5941 21.1042 11.0108 21.3437 9.69825 19.2187L7.86491 16.25C7.53158 15.7083 6.73992 15.3021 6.11492 15.3333L2.63579 15.5104C0.146203 15.6354 -0.56214 14.1979 1.06286 12.3021L3.12534 9.90624C3.51076 9.45832 3.68783 8.625 3.51075 8.0625L2.45872 4.6979C1.84414 2.71874 2.94829 1.625 4.91704 2.27083L7.98997 3.28125C8.5108 3.44792 9.29203 3.33332 9.72953 3.01041L12.9379 0.697905C14.6671 -0.552095 16.0524 0.177075 16.0108 2.31249Z" fill="#614731"/>
</svg>
