<svg fill="none" height="30" viewBox="0 0 30 30" width="30" xmlns="http://www.w3.org/2000/svg"><path d="m9.68751 9.6875-.9375-3.75h-2.81249m3.74999 3.75h14.37499l-2.0465 8.6976c-.2657 1.1293-1.2734 1.9274-2.4335 1.9274h-5.1581c-1.1344 0-2.1265-.7638-2.4168-1.8603z" stroke="#352817" stroke-linecap="round" stroke-linejoin="round" stroke-width="1.5"/><g fill="#352817"><path d="m12.5 25c.6904 0 1.25-.5596 1.25-1.25s-.5596-1.25-1.25-1.25-1.25.5596-1.25 1.25.5596 1.25 1.25 1.25z"/><path d="m21.25 25c.6904 0 1.25-.5596 1.25-1.25s-.5596-1.25-1.25-1.25c-.6903 0-1.25.5596-1.25 1.25s.5597 1.25 1.25 1.25z"/></g></svg>