<svg width="50" height="50" viewBox="0 0 50 50" fill="none" xmlns="http://www.w3.org/2000/svg">
<path fill-rule="evenodd" clip-rule="evenodd" d="M27.3706 47.5354C20.6236 48.2241 14.3963 45.9322 9.84057 41.8196L14.5816 37.0786C14.7024 36.9577 14.7427 36.7765 14.6944 36.6113C14.5292 36.0474 14.4285 35.5117 14.3721 35.0404C14.3278 34.6497 13.8525 34.4926 13.5746 34.7705L8.18505 40.164C4.07243 35.6043 1.78047 29.381 2.46524 22.634C3.54475 12.0645 12.064 3.54518 22.6376 2.46566C29.3806 1.77687 35.6079 4.06882 40.1636 8.18145L33.9645 14.3766C33.7349 14.6102 33.8436 15.009 34.1659 15.0855C34.762 15.2184 35.479 15.4158 35.8456 15.5165C35.9906 15.5568 36.1436 15.5165 36.2524 15.4077L41.8191 9.83697C45.9318 14.3927 48.2237 20.62 47.539 27.363C46.4594 37.9365 37.9442 46.4558 27.3706 47.5354ZM25.002 0C11.2181 0 0 11.214 0 24.998C0 38.7859 11.2181 50 25.002 50C38.7859 50 50 38.7859 50 24.998C50 11.214 38.7859 0 25.002 0Z" fill="#42774D"/>
<path fill-rule="evenodd" clip-rule="evenodd" d="M22.2919 34.8012C21.0432 33.7177 19.6536 33.2988 18.4895 33.1739C17.0071 33.0087 15.8914 33.3149 15.8914 33.3149C15.8914 33.3149 15.7705 34.3098 16.0485 35.6109C16.3103 36.8072 16.9064 38.2613 18.2679 39.4415C21.1037 41.9027 24.6685 42.2974 24.6685 42.2974C24.6685 42.2974 25.1277 37.2624 22.2919 34.8012Z" fill="#42774D"/>
<path fill-rule="evenodd" clip-rule="evenodd" d="M28.0776 12.8256C28.0776 8.64449 25.0082 6.3606 25.0082 6.3606C25.0082 6.3606 21.9348 8.64449 21.9348 12.8256C21.9348 17.0067 25.0082 19.2906 25.0082 19.2906C25.0082 19.2906 28.0776 17.0067 28.0776 12.8256Z" fill="#42774D"/>
<path fill-rule="evenodd" clip-rule="evenodd" d="M25.4445 22.8991C25.227 24.4177 25.3358 25.6181 25.3358 25.6181C25.3358 25.6181 25.6621 25.5818 26.1938 25.465C27.4223 25.1911 29.7545 24.4821 31.7363 22.7622C33.7101 21.0543 34.0847 18.7623 34.133 17.5257C34.1532 16.9779 34.1129 16.6355 34.1129 16.6355C34.1129 16.6355 33.1743 16.3818 31.8813 16.4623C30.6488 16.5429 29.0939 16.9215 27.7123 18.1219C26.2582 19.3827 25.6741 21.3121 25.4445 22.8991Z" fill="#42774D"/>
<path fill-rule="evenodd" clip-rule="evenodd" d="M18.2664 22.7636C19.9018 24.1815 21.7708 24.9106 23.0679 25.2771C24.0225 25.547 24.667 25.6195 24.667 25.6195C24.667 25.6195 24.7395 24.8179 24.6469 23.6941C24.5099 22.0104 23.9943 19.6016 22.2905 18.1233C19.4547 15.6622 15.8899 16.637 15.8899 16.637C15.8899 16.637 15.4307 20.3025 18.2664 22.7636Z" fill="#42774D"/>
<path fill-rule="evenodd" clip-rule="evenodd" d="M27.7116 26.4627C24.8718 28.9238 25.335 33.9589 25.335 33.9589C25.335 33.9589 28.8998 33.5601 31.7396 31.103C34.5753 28.6378 34.1121 24.9763 34.1121 24.9763C34.1121 24.9763 30.5473 24.0015 27.7116 26.4627Z" fill="#42774D"/>
<path fill-rule="evenodd" clip-rule="evenodd" d="M18.2662 31.103C18.6931 31.4736 19.1362 31.7918 19.5833 32.0738C22.0968 33.6689 24.6667 33.9589 24.6667 33.9589C24.6667 33.9589 24.9688 30.6479 23.5711 28.086C23.2448 27.4859 22.8259 26.93 22.2902 26.4627C22.2137 26.3983 22.1371 26.3419 22.0606 26.2815C19.2651 24.062 15.8896 24.9764 15.8896 24.9764C15.8896 24.9764 15.4909 28.1706 17.7466 30.5995C17.9077 30.7687 18.0769 30.9379 18.2662 31.103Z" fill="#42774D"/>
<path fill-rule="evenodd" clip-rule="evenodd" d="M27.7116 34.7979C24.8718 37.259 25.335 42.2941 25.335 42.2941C25.335 42.2941 28.8998 41.8993 31.7396 39.4382C34.5753 36.9771 34.1121 33.3115 34.1121 33.3115C34.1121 33.3115 30.5473 32.3368 27.7116 34.7979Z" fill="#42774D"/>
</svg>
