<svg width="192" height="332" viewBox="0 0 192 332" fill="none" xmlns="http://www.w3.org/2000/svg">
<mask id="mask0_1465_11437" style="mask-type:alpha" maskUnits="userSpaceOnUse" x="-12" y="-5" width="183" height="348">
<path fill-rule="evenodd" clip-rule="evenodd" d="M25.9233 -5L170.935 11.3857L133.549 342.249L-11.4627 325.863L25.9233 -5Z" fill="white"/>
</mask>
<g mask="url(#mask0_1465_11437)">
<path fill-rule="evenodd" clip-rule="evenodd" d="M40.1743 305.485C40.7936 301.537 42.1241 296.975 42.7451 293.027C46.8512 264.041 50.9107 235.718 54.0245 206.659C55.0302 197.415 56.0359 188.17 59.028 179.07C64.6327 161.509 69.22 144.205 70.2141 125.974C70.7268 114.365 75.8736 103.093 85.4611 94.8056C101.038 81.9628 116.189 70.4188 134.456 61.7654C144.465 56.8367 150.153 47.2674 155.155 37.9812C159.779 29.3329 164.709 21.0392 169.969 12.7703C170.393 12.2243 170.714 11.5588 170.989 10.9075C170.464 11.1929 169.93 11.4702 169.38 11.7297C160.411 16.0689 152.767 20.5029 143.751 25.5049C133.339 31.4027 122.739 35.2889 111.22 38.1113C106.819 39.1219 102.703 40.8187 98.8452 43.5328C96.3824 45.351 94.5825 47.2158 92.1448 48.7027C85.4945 53.2102 78.9874 55.731 72.3138 60.5699C62.4665 67.8396 53.6365 74.8513 45.9371 84.6069C35.632 98.1656 28.662 111.634 19.3025 125.929C11.838 137.032 6.97433 148.991 7.64192 162.684C8.6327 181.058 10.4076 197.828 12.7238 216.298C13.3316 221.666 13.608 227.011 14.2156 232.381C14.7502 238.742 14.9782 244.749 17.5474 250.594C21.507 260.2 25.137 269.781 27.3931 279.929C30.3287 294.452 32.6266 308.595 36.273 322.505C36.941 325.135 36.8574 327.956 37.316 330.64C37.7088 330.933 38.1094 331.221 38.5081 331.51C39.7179 322.978 39.2904 314.183 40.1743 305.485Z" fill="#58865F"/>
</g>
<mask id="mask1_1465_11437" style="mask-type:alpha" maskUnits="userSpaceOnUse" x="38" y="0" width="178" height="348">
<path fill-rule="evenodd" clip-rule="evenodd" d="M75.6169 0.615112L215.707 16.4446L178.284 347.639L38.1936 331.809L75.6169 0.615112Z" fill="white"/>
</mask>
<g mask="url(#mask1_1465_11437)">
<path fill-rule="evenodd" clip-rule="evenodd" d="M218.355 -31.7467C217.075 -31.3187 216.866 -29.442 215.357 -28.6598C214.252 -28.1164 214.046 -26.2412 212.942 -25.6978C211.14 -24.8514 211.392 -23.6845 210.464 -23.0275C210.288 -23.1429 209.755 -23.4858 209.755 -23.4858C208.776 -22.3591 208.445 -21.0673 207.465 -19.9405C207.174 -19.878 206.59 -19.753 206.298 -19.6888C205.321 -18.5636 204.874 -17.0939 203.832 -16.2589C199.958 -12.9826 198.681 -8.28171 195.518 -4.54872C195.226 -4.48622 194.641 -4.36142 194.349 -4.29718C193.256 -2.99415 192.758 -1.05474 191.54 -0.335034C189.914 0.625029 189.988 1.67632 189.062 2.33528C188.884 2.21972 188.53 1.99056 188.354 1.87695C187.425 2.53397 187.094 3.8258 185.876 4.54726C184.656 5.26677 184.22 7.49784 183.002 8.21755C181.784 8.93726 181.618 9.58307 180.983 10.1778C180.805 10.064 180.273 9.72101 180.273 9.72101C176.778 14.7458 173.343 20.0639 170.2 25.3194C170.087 25.4957 170.566 26.3082 170.452 26.4862C167.881 30.8537 165.134 35.1092 162.21 39.2475C162.096 39.4255 161.448 39.2587 161.043 39.4992C160.179 40.4481 159.491 41.5123 158.743 42.2833C156.368 44.016 155.6 47.5389 153.225 49.2697C151.549 50.6995 151.457 52.3986 150.01 53.4724C149.603 53.7128 149.249 53.4836 148.842 53.724C148.323 54.1408 148.334 54.9022 147.927 55.1426C145.489 56.5818 142.812 57.6157 140.969 59.6913C140.969 59.6913 140.439 59.3486 140.261 59.2348C139.511 60.0056 139.179 61.2974 138.251 61.9562C136.919 62.8522 136.472 64.3219 135.254 65.0433C133.921 65.9409 133.411 67.1189 132.432 68.2439C132.026 68.4845 131.672 68.2553 131.265 68.4957C130.517 69.2667 130.183 70.5601 129.433 71.3309C129.028 71.5714 128.674 71.3423 128.266 71.5826C127.747 71.9995 127.757 72.7606 127.351 73.0012C125.955 73.6071 125.561 74.6073 124.811 75.3798C124.519 75.4424 124.05 75.391 123.644 75.6298C122.894 76.4024 122.563 77.6942 121.813 78.4668C121.635 78.3513 121.28 78.1221 121.104 78.0085C120.697 78.2488 120.708 79.0085 120.187 79.4269C119.782 79.6674 119.428 79.4383 119.021 79.6769C118.386 80.2716 118.106 81.0955 117.001 81.6389C116.418 81.7639 115.971 83.2335 115.501 83.1822C113.575 83.4436 113.065 84.6217 111.669 85.2276C111.086 85.3543 110.868 86.4681 110.233 87.0628C109.712 87.4812 109.129 87.6062 108.608 88.0229C107.629 89.1496 106.827 90.3901 105.786 91.2252C104.109 92.655 103.622 95.354 101.883 96.4921C100.258 97.4522 100.332 98.5035 99.4056 99.1607C99.2275 99.0469 98.8733 98.8177 98.697 98.7041C98.29 98.9427 98.1874 99.8821 97.7804 100.121C97.6041 100.007 97.2499 99.778 97.0719 99.6642C95.9164 100.676 95.3555 102.323 94.3138 103.157C91.1903 105.66 89.6725 109.956 87.2062 113.386C87.2062 113.386 86.674 113.043 86.4959 112.929C85.7459 113.7 85.4142 114.993 84.6642 115.764C84.4879 115.65 83.9558 115.306 83.9558 115.306C81.9478 118.027 79.6461 120.813 78.9299 123.866C78.369 125.514 77.5565 125.993 77.3385 127.109C77.5166 127.222 77.8707 127.452 78.0486 127.567C77.7666 128.389 76.9556 128.87 76.6734 129.694C76.8515 129.808 77.2056 130.037 77.3837 130.151C77.3324 130.62 76.5197 131.101 76.4668 131.569C76.6787 133.965 75.8243 135.675 74.6801 137.448C74.5663 137.626 74.9829 138.147 74.9318 138.615C74.6513 139.439 73.8387 139.92 73.5584 140.742C73.5053 141.211 73.8612 141.441 73.8084 141.908C73.6433 142.556 72.9444 142.859 72.8933 143.327C72.9159 144.848 72.1657 145.621 71.7716 146.621C71.8341 146.912 71.9591 147.496 72.0216 147.787C71.3982 149.143 70.3563 149.979 69.7331 151.333L70.4414 151.791C69.8182 153.146 68.7763 153.981 68.1529 155.337C68.2154 155.628 68.5184 156.325 68.4029 156.503C66.3948 159.225 65.3244 162.049 65.4944 165.676C65.4414 166.146 64.7442 166.449 64.5776 167.094C64.5265 167.562 64.8806 167.792 64.8293 168.261C64.6626 168.907 63.9655 169.21 63.9142 169.68C64.4048 171.252 63.2379 171.504 63.2493 172.263C63.5217 174.953 63.3263 177.589 62.5987 179.883C61.8713 182.175 61.9676 184.749 61.5941 187.271C61.7722 187.385 62.1263 187.614 62.3042 187.73C61.5029 188.97 62.1601 189.897 61.3588 191.137C61.0158 191.67 61.673 192.596 61.6842 193.357C61.6314 193.825 60.8205 194.306 60.7674 194.776C60.9904 197.933 59.9713 200.287 60.1926 203.445C60.1413 203.915 59.3286 204.395 59.2758 204.863C59.7679 206.437 58.8929 206.625 58.6124 207.449C58.7887 207.562 59.1446 207.792 59.3207 207.907C59.0405 208.729 58.4058 209.324 58.364 210.555C58.5532 211.43 56.928 212.39 57.1173 213.265C57.0868 215.256 55.8064 215.684 55.9939 216.559C56.0164 218.08 55.3176 218.382 55.0371 219.206C55.2152 219.32 55.5693 219.549 55.7472 219.665C55.4669 220.487 54.6542 220.968 54.3737 221.792C54.3851 222.551 54.8643 223.364 54.8755 224.125C54.8244 224.593 54.0117 225.074 53.9604 225.544C54.108 227.648 53.8389 229.232 52.6304 230.713C52.8082 230.828 53.1626 231.056 53.3387 231.171C52.3837 233.819 53.3021 236.673 51.5232 239.041C51.2315 239.103 51.6482 239.624 51.5971 240.092C51.2011 241.094 50.1612 241.927 49.7651 242.929C49.9432 243.043 50.2973 243.272 50.4735 243.387C49.1419 244.283 50.1531 245.44 49.3518 246.681C49.5298 246.795 49.884 247.024 50.0603 247.137C49.9465 247.316 49.7173 247.67 49.6035 247.848C49.7798 247.961 50.134 248.19 50.3118 248.306C48.9897 249.963 51.4725 251.566 50.1504 253.223C50.3265 253.339 50.6807 253.568 50.8587 253.682C50.7449 253.86 50.5158 254.214 50.4002 254.392C50.5783 254.505 50.9324 254.735 51.1105 254.848C51.4133 255.547 51.5383 256.131 50.9037 256.725C51.08 256.839 51.4342 257.068 51.6122 257.182C51.4984 257.36 51.2692 257.714 51.1537 257.892C51.3317 258.006 51.6859 258.235 51.864 258.349C51.7484 258.527 51.5192 258.881 51.4054 259.059C51.5835 259.173 51.9376 259.402 52.114 259.515C51.6267 262.216 52.3802 265.716 52.414 267.999C52.3148 273.209 51.7973 277.899 51.0524 282.943C51.2285 283.058 51.5828 283.286 51.7607 283.401C50.9594 284.642 51.9708 285.797 50.639 286.695C50.8153 286.809 51.1695 287.038 51.3473 287.153C51.2962 287.621 50.5974 287.924 50.4324 288.57C50.3794 289.04 50.7335 289.269 50.6822 289.738C50.402 290.561 49.7673 291.155 49.7255 292.386C49.8011 293.438 48.5814 294.157 48.6038 295.68C48.793 296.555 47.4595 297.453 47.0637 298.453C47.2418 298.566 47.7738 298.911 47.7738 298.911C47.035 300.443 45.764 301.633 45.0252 303.165C45.0894 303.457 45.3282 303.862 45.2769 304.332C44.7673 305.51 43.841 306.167 43.8636 307.688C44.0511 308.563 42.7176 309.46 42.3233 310.462C42.4996 310.576 42.8555 310.805 43.0318 310.919C42.7513 311.743 41.9387 312.224 41.6584 313.046C41.6071 313.516 41.9612 313.745 41.9101 314.213C41.6297 315.037 40.9933 315.631 40.9534 316.86C41.0782 317.445 40.1519 318.103 39.8716 318.925C40.0495 319.04 40.5799 319.383 40.5799 319.383C40.1353 320.127 39.7264 320.883 39.3413 321.647C39.1933 324.959 38.9695 328.254 38.5078 331.51C38.6893 331.641 38.8685 331.776 39.05 331.906C46.0947 323.501 51.8493 314.155 55.6428 303.283C61.9585 285.107 67.5631 267.545 79.3118 252.428C85.2346 244.206 93.9445 238.851 101.757 232.097C103.864 230.587 105.97 229.077 108.028 228.227C115.884 225.472 124.917 224.799 130.978 219.249C137.726 213.418 139.724 204.245 144.606 196.614C145.72 195.033 147.827 193.521 148.941 191.939C157.402 176.249 162.936 159.679 167.548 142.045C171.852 124.055 173.767 106.891 175.73 89.0633C175.875 87.0769 176.681 85.1387 176.826 83.154C180.561 50.1471 190.842 18.6154 203.723 -12.0605C206.168 -18.2045 211.14 -22.5021 215.829 -27.4857C218.109 -29.8036 219.95 -32.4328 221.546 -35.238C221.46 -35.2088 221.373 -35.1745 221.291 -35.1254C220.136 -34.114 220.043 -32.4151 218.355 -31.7467Z" fill="#42774D"/>
</g>
</svg>
