<svg width="28" height="29" viewBox="0 0 28 29" fill="none" xmlns="http://www.w3.org/2000/svg">
<path d="M16.1016 5.87327L17.7858 9.19218C18.0166 9.64774 18.6303 10.0887 19.1493 10.1575L22.2371 10.6062C24.2143 10.8893 24.659 12.2875 23.2339 13.7125L20.8065 16.1262C20.4012 16.5308 20.1626 17.3137 20.2907 17.8572L20.9562 20.7726C21.4793 23.0743 20.2239 23.9976 18.155 22.8292L15.265 21.1966C14.7387 20.8982 13.8782 20.9221 13.3547 21.2338L10.4416 22.9718C8.35626 24.214 7.11111 23.3415 7.66941 21.0208L8.38261 18.084C8.51579 17.535 8.2993 16.7605 7.89813 16.3733L5.50471 14.0542C4.10048 12.688 4.56587 11.273 6.54445 10.9104L9.63376 10.3464C10.1553 10.247 10.7764 9.79449 11.0096 9.32573L12.745 5.93439C13.6786 4.10356 15.1925 4.07706 16.1016 5.87327Z" stroke="#F05922" stroke-width="1.5" stroke-linecap="round" stroke-linejoin="round"/>
</svg>
