<svg width="50" height="50" viewBox="0 0 50 50" fill="none" xmlns="http://www.w3.org/2000/svg">
<path fill-rule="evenodd" clip-rule="evenodd" d="M27.3706 47.5354C20.6236 48.2241 14.3963 45.9322 9.84057 41.8196L19.6811 31.83C19.8019 31.7052 19.8422 31.5239 19.7938 31.3588C19.6287 30.7948 19.528 30.2631 19.4716 29.7878C19.4233 29.4011 18.952 29.24 18.6741 29.5179L8.18505 40.164C4.07243 35.6043 1.78047 29.381 2.46524 22.634C3.54475 12.0645 12.064 3.54518 22.6376 2.46566C29.3806 1.77687 35.6079 4.06882 40.1636 8.18145L28.8529 18.5577C28.6193 18.7913 28.7321 19.1901 29.0503 19.2626C29.6464 19.3995 30.3674 19.5969 30.73 19.6976C30.875 19.7379 31.028 19.6936 31.1368 19.5888L41.8191 9.83697C45.9318 14.3927 48.2237 20.62 47.539 27.363C46.4594 37.9365 37.9442 46.4558 27.3706 47.5354M25.002 0C11.2181 0 0 11.214 0 24.998C0 38.786 11.2181 50 25.002 50C38.7859 50 50 38.786 50 24.998C50 11.214 38.7859 0 25.002 0" fill="#42774D"/>
<path fill-rule="evenodd" clip-rule="evenodd" d="M32.8041 34.755C32.7034 34.6744 32.5584 34.6744 32.4577 34.755C32.3691 34.8275 30.3229 36.5273 30.3229 38.7991C30.3229 40.076 31.3581 41.1112 32.6309 41.1112C33.9038 41.1112 34.943 40.076 34.943 38.7991C34.943 36.5273 32.8928 34.8275 32.8041 34.755" fill="#42774D"/>
<path fill-rule="evenodd" clip-rule="evenodd" d="M30.1998 28.1648C30.0588 28.3058 29.8695 28.3783 29.6842 28.3783C29.4989 28.3783 29.3136 28.3058 29.1686 28.1648L28.4073 27.3994C28.1213 27.1175 28.1213 26.6543 28.4073 26.3723C28.6893 26.0863 29.1525 26.0863 29.4345 26.3723L30.1998 27.1336C30.4858 27.4196 30.4858 27.8788 30.1998 28.1648V28.1648ZM22.7073 25.4209L18.784 21.4976L21.6439 18.6376L25.5672 22.561L22.7073 25.4209ZM32.0684 33.6648C32.576 33.6648 33.0513 33.4674 33.4098 33.1089C33.7642 32.7504 33.9616 32.2751 33.9616 31.7676C33.9616 31.2641 33.7642 30.7888 33.4098 30.4303L32.721 29.7415C32.9143 28.6338 32.5639 27.4938 31.7542 26.6842L22.6751 17.605L22.7798 17.5003C23.0859 17.1941 23.2551 16.7873 23.2551 16.3563C23.2551 15.9253 23.0859 15.5185 22.7798 15.2123C22.4737 14.9062 22.0708 14.7411 21.6358 14.7411C21.2048 14.7411 20.798 14.9062 20.4959 15.2123L20.3871 15.3211L17.06 11.9939C16.4034 11.3374 15.5293 10.9749 14.5988 10.9749C13.6724 10.9749 12.7983 11.3374 12.1417 11.9939C10.7843 13.3514 10.7843 15.5588 12.1417 16.9162L15.4649 20.2393L15.3601 20.3481C14.7277 20.9805 14.7277 22.0036 15.3601 22.636C15.6622 22.9381 16.0691 23.1073 16.5001 23.1073C16.9351 23.1073 17.3379 22.9381 17.644 22.636L17.7528 22.5273L26.832 31.6065C27.7101 32.4846 28.9668 32.8189 30.143 32.5208L30.7311 33.1089C31.0856 33.4674 31.5609 33.6648 32.0684 33.6648V33.6648Z" fill="#42774D"/>
</svg>
