<svg width="150" height="137" viewBox="0 0 150 137" fill="none" xmlns="http://www.w3.org/2000/svg">
<path fill-rule="evenodd" clip-rule="evenodd" d="M70.2489 136.405C45.0655 136.854 18.6767 125.868 6.79299 103.66C-2.36197 86.5556 -2.25567 64.834 7.06576 47.8177C16.7542 30.1346 34.1937 19.4904 50.4478 8.61257C58.1587 3.45093 66.7059 0.767319 75.4597 0.143555C108.893 -2.24222 145.342 25.4112 149.644 59.9261C151.591 75.5564 145.36 91.3733 135.661 103.782C120.151 123.627 95.4324 135.956 70.2489 136.405Z" fill="#F9F3DF"/>
<path d="M61.667 67.9997V62.0663C61.667 54.6997 66.8837 51.683 73.267 55.3663L78.417 58.333L83.567 61.2997C89.9503 64.983 89.9503 71.0163 83.567 74.6997L78.417 77.6663L73.267 80.633C66.8837 84.3163 61.667 81.2997 61.667 73.933V67.9997Z" fill="#F26B25" stroke="#F26B25" stroke-width="2.8205" stroke-miterlimit="10" stroke-linecap="round" stroke-linejoin="round"/>
</svg>
