<svg width="96" height="80" viewBox="0 0 96 80" fill="none" xmlns="http://www.w3.org/2000/svg">
<path d="M26.6659 14.8155C25.5027 15.3118 24.4132 15.9685 23.4283 16.7669C19.3555 20.1569 25.9732 23.8487 28.3397 25.9161C32.7213 29.7463 37.3117 33.3257 42.0893 36.6374C45.1995 38.7938 48.3843 40.8576 51.6516 42.7611C54.2772 44.2913 56.8508 46.4838 59.8531 47.2078C60.6449 47.3991 61.5169 47.5209 62.2417 47.1461C63.055 46.7257 63.4691 45.7847 63.6474 44.8788C65.0616 37.7421 63.1483 30.2211 59.0042 24.3333C51.9511 14.3134 37.8374 9.90208 26.6659 14.8155Z" fill="#A64826"/>
<path d="M49.3426 31.3645C46.6892 29.1986 45.2623 28.0243 42.1078 26.1304C38.5674 24.0021 36.2712 22.2668 29.3862 20.8439C28.972 20.758 28.2132 20.5738 27.2675 20.368C26.9568 19.0889 27.6588 17.9301 28.697 16.9917C30.1624 16.8186 31.6365 16.7326 33.1119 16.7344C33.3896 16.7344 33.6737 16.7379 33.9675 16.743C41.8848 16.9042 46.7299 20.2669 50.6167 22.9001C51.4408 23.4624 52.2224 24.0857 52.9552 24.7648C53.142 25.6038 53.18 26.4696 53.0673 27.3219C53.0316 27.5897 52.976 27.8544 52.9009 28.1137C51.6988 29.1787 50.5127 30.2623 49.3426 31.3645Z" fill="#BB5B32"/>
<path d="M48.5552 32.1108C48.2938 31.8551 48.027 31.6049 47.7548 31.3602C47.9737 31.4006 48.1969 31.432 48.4244 31.4545C48.5603 31.4675 48.6935 31.4751 48.8251 31.4751C48.9672 31.4752 49.1091 31.4674 49.2503 31.4518C49.0189 31.6709 48.7862 31.8903 48.5552 32.1108ZM35.276 24.9637C33.6883 24.6353 32.0753 24.4478 30.4553 24.4036C28.2985 23.4671 26.0661 22.7198 23.7826 22.1699C22.9677 21.337 22.3421 20.4544 22.1766 19.5554C23.8902 19.7125 25.5916 19.9838 27.2697 20.3678C27.3635 20.7339 27.5201 21.0805 27.7323 21.392C28.9954 23.2946 30.5311 23.5861 32.5785 24.1378C33.4921 24.384 34.3913 24.6594 35.276 24.9639V24.9637Z" fill="#9A3E20"/>
<path d="M48.8254 31.4745C48.6937 31.4745 48.5605 31.4677 48.4246 31.4539C48.1971 31.4317 47.9739 31.4003 47.755 31.3596C45.8103 29.6113 43.6341 28.145 41.2893 27.0031C39.3753 26.0762 37.3557 25.3911 35.276 24.9634C34.3898 24.6572 33.4903 24.3818 32.5775 24.1372C30.5301 23.5857 28.9944 23.2932 27.7313 21.3914C27.5191 21.0799 27.3625 20.7333 27.2687 20.3672C28.2135 20.5731 28.9724 20.7583 29.3874 20.8434C36.2732 22.2663 38.5685 24.0018 42.109 26.1298C45.2633 28.0238 46.6903 29.1972 49.3438 31.364C49.3133 31.3932 49.2827 31.4214 49.2513 31.4506C49.1099 31.4665 48.9677 31.4744 48.8254 31.4745Z" fill="#AE4E29"/>
<path d="M26.6127 24.5582C25.6145 23.8314 24.669 23.0333 23.7834 22.1702C26.0669 22.7201 28.2994 23.4674 30.4562 24.4038C30.1948 24.397 29.934 24.3927 29.6735 24.3927C28.651 24.3929 27.6294 24.4482 26.6127 24.5582Z" fill="#8F351B"/>
<path d="M54.7111 26.5379C54.1482 25.9203 53.5651 25.3249 52.9564 24.7658C51.8282 19.6679 45.5061 15.9119 41.0183 14.7555C39.5921 14.3812 38.1254 14.1876 36.6519 14.1791C35.2235 14.1673 33.8026 14.3903 32.445 14.8395C31.0738 15.3145 29.8029 16.0452 28.6982 16.9935C28.1227 17.0604 27.5852 17.1351 27.0727 17.2097C25.4616 17.4448 24.0983 17.6796 22.5814 17.6831C22.8185 17.3382 23.1038 17.03 23.4285 16.7679C24.4133 15.9695 25.5029 15.3128 26.6661 14.8165C29.7673 13.4696 33.11 12.7833 36.4855 12.8006C44.8161 12.8006 53.2221 16.7738 58.3805 23.4867C57.1424 24.4838 55.9193 25.5009 54.7111 26.5379Z" fill="#B5552E"/>
<path d="M52.9566 24.7657C52.2238 24.0866 51.4421 23.4633 50.6181 22.901C46.7313 20.2675 41.8859 16.9051 33.9689 16.7439C33.6751 16.7388 33.3907 16.7352 33.1132 16.7352C31.6379 16.7335 30.1637 16.8194 28.6984 16.9926C29.8031 16.0442 31.074 15.3136 32.4452 14.8386C33.8028 14.3894 35.2236 14.1664 36.6521 14.1782C38.1256 14.1867 39.5923 14.3803 41.0185 14.7546C45.5063 15.9118 51.8284 19.6678 52.9566 24.7657Z" fill="#C6673A"/>
<path d="M89.1272 36.9239C89.3714 35.8004 89.4605 34.648 89.3921 33.4998C89.0457 28.7058 82.911 31.7036 80.172 32.3864C75.1006 33.6498 70.1031 35.1985 65.2027 37.0252C62.0128 38.2149 58.8508 39.5076 55.7618 40.9462C53.2807 42.1017 50.3428 42.8719 48.252 44.7282C47.7003 45.2171 47.157 45.8013 47.0516 46.5354C46.9345 47.3589 47.4039 48.1583 47.9684 48.7631C52.4299 53.5314 58.9024 56.0259 65.3486 56.0113C76.3225 55.9856 86.8871 47.7896 89.1272 36.9239Z" fill="#994223"/>
<path d="M68.188 51.2893C67.4796 50.9914 66.8292 50.5688 66.2671 50.0411C65.1187 48.9638 64.5312 47.3237 64.9293 45.8441C65.1686 45.5868 65.4026 45.326 65.6313 45.0618C68.3612 44.2822 69.9502 43.8146 72.8447 42.5134C76.2375 40.9899 78.6982 40.1854 83.3203 35.8073C83.5988 35.5431 84.1285 35.0756 84.7702 34.4802C85.8636 34.9152 86.3423 36.0405 86.4841 37.3006C85.7231 38.709 84.8659 40.0621 83.9188 41.3502C79.679 47.1532 74.7063 49.0041 70.7643 50.5224C69.9255 50.8421 69.0644 51.0984 68.188 51.2893Z" fill="#AF542E"/>
<path d="M67.1968 43.0802C67.8761 42.139 68.4989 41.1574 69.0617 40.1406C70.5515 39.5531 71.9783 38.9338 73.4374 38.2483C77.8268 36.1845 81.2273 34.5135 85.2737 30.9477C85.6867 30.8755 86.1048 30.8374 86.5239 30.8336C87.0348 30.8183 87.543 30.9146 88.0137 31.1158C87.0069 32.308 85.9231 33.4316 84.7695 34.4793C84.454 34.3577 84.1198 34.2935 83.7822 34.2897C83.7313 34.2881 83.6804 34.287 83.6302 34.287C81.6882 34.287 80.6907 35.2581 79.2596 36.4632C77.9229 37.5944 76.5039 38.6224 75.0146 39.5385C72.5928 41.0197 69.5447 41.4672 67.1968 43.0802Z" fill="#8D381D"/>
<path d="M65.6313 45.0606C66.1822 44.4233 66.7039 43.7631 67.1965 43.08C69.5444 41.4675 72.5936 41.0197 75.0152 39.5391C76.5045 38.6231 77.9235 37.5952 79.2602 36.464C80.6913 35.2589 81.6887 34.2878 83.6308 34.2878C83.6809 34.2878 83.7327 34.2878 83.7828 34.2905C84.1204 34.2943 84.4546 34.3585 84.7701 34.4801C84.1283 35.0755 83.5986 35.5428 83.3202 35.8071C78.6983 40.1853 76.2373 40.989 72.8445 42.5132C69.9494 43.8141 68.3612 44.281 65.6313 45.0606Z" fill="#A14826"/>
<path d="M69.0615 40.1405C69.9849 38.4764 70.7408 36.723 71.3177 34.9064C74.2412 33.9689 77.1929 33.1288 80.1729 32.3861C81.447 32.0687 83.4555 31.2496 85.2746 30.9478C81.2272 34.5136 77.8269 36.1846 73.4383 38.2484C71.9782 38.9337 70.5511 39.5528 69.0615 40.1405Z" fill="#823018"/>
<path d="M65.292 56.0112C65.1842 56.0112 65.0773 56.0112 64.9695 56.0085C64.2436 54.0991 61.1454 52.9479 58.8206 52.0585C61.9035 51.9891 65.1504 51.9659 68.1883 51.2892C69.174 51.6907 70.229 51.8898 71.2916 51.8751C75.0495 51.8751 79.2301 49.7479 81.6959 47.6264C83.6661 45.9332 85.3511 43.7355 86.1006 41.2085C86.4691 39.9413 86.5992 38.6154 86.4842 37.2997C87.5232 35.3817 88.1301 33.8823 89.1674 32.3933C89.2951 32.7492 89.3712 33.1219 89.3932 33.4998C89.4109 33.7469 89.4195 33.9983 89.4195 34.2513C89.4123 35.1499 89.3144 36.0454 89.1275 36.924C86.8866 47.7895 76.3228 55.9856 65.3505 56.0114L65.292 56.0112Z" fill="#A84E2B"/>
<path d="M71.2915 51.8749C70.2289 51.8896 69.1739 51.6905 68.1882 51.289C69.0646 51.0979 69.9257 50.8413 70.7645 50.5213C74.7065 49.0031 79.679 47.1519 83.9191 41.3491C84.8661 40.0611 85.7233 38.708 86.4843 37.2996C86.5993 38.6153 86.4692 39.9411 86.1007 41.2083C85.3512 43.7345 83.6662 45.933 81.696 47.6262C79.2298 49.7477 75.0494 51.8749 71.2915 51.8749Z" fill="#BB5F35"/>
<path d="M8.41995 34.4398C7.63797 35.4416 6.99721 36.5481 6.51596 37.7277C4.5696 42.6831 12.1269 42.6891 15.187 43.3443C20.8542 44.5616 26.5844 45.4576 32.3506 46.0282C36.1042 46.3988 39.879 46.6545 43.6513 46.7282C46.6808 46.7864 49.982 47.4522 52.9579 46.6228C53.7423 46.405 54.5639 46.0859 55.0198 45.4038C55.5318 44.6386 55.4452 43.6128 55.1691 42.7327C52.9987 35.7923 47.7306 30.1388 41.2897 27.0045C30.3236 21.6682 15.8558 24.6877 8.41995 34.4398Z" fill="#B5572B"/>
<path d="M10.7745 39.2645C10.4326 38.8434 10.1931 38.3472 10.075 37.8158C9.95699 37.2843 9.9637 36.7323 10.0946 36.2039C11.8687 34.831 13.7562 33.6145 15.7361 32.5677C19.1611 30.7171 22.9615 29.6879 26.8433 29.5596C26.5376 30.0369 26.3908 30.6004 26.424 31.168C26.4409 31.6664 26.7687 32.2282 27.2949 32.3243C27.3 32.3243 27.3059 32.327 27.311 32.3279C27.3994 32.3889 27.4932 32.4414 27.5911 32.4849C27.6225 32.5039 27.6488 32.5193 27.671 32.5321C27.7643 32.6144 27.8543 32.6968 27.9436 32.7859C27.9996 32.8639 28.6711 33.6505 28.7534 33.7492L28.6539 33.6102C28.6539 33.6102 28.7151 33.6926 28.8322 33.8546C29.0113 34.0991 29.1802 34.3513 29.3517 34.6016C29.9228 35.4815 30.5632 36.3134 31.2667 37.0891C30.1207 36.9578 28.9009 36.8687 27.3485 36.818C25.9632 36.7717 24.7239 36.6962 23.4319 36.6962C20.8838 36.6962 18.1352 36.9911 13.6822 38.3929C13.1623 38.5553 12.0691 38.8528 10.7745 39.2645ZM28.0619 32.9127C28.0593 32.9094 28.0565 32.9062 28.0534 32.9032C28.0565 32.906 28.0594 32.909 28.0621 32.9121L28.0619 32.9127Z" fill="#C96C38"/>
<path d="M9.40548 42.2874C8.29519 41.9545 7.32486 41.4862 6.75037 40.7803C8.06033 40.1932 9.40423 39.6867 10.7747 39.2636C11.0028 39.5441 11.2633 39.7961 11.5505 40.0142C12.3128 40.6018 13.1786 40.7554 14.0707 40.7554C14.8449 40.7554 15.6394 40.6386 16.4025 40.5882C17.2148 40.5341 18.0241 40.5041 18.8303 40.4982C18.8134 40.5128 18.7963 40.5283 18.7802 40.5445C18.6895 40.6305 18.6071 40.725 18.5341 40.8268C15.4464 40.9636 12.384 41.4536 9.40548 42.2874ZM38.8857 42.1544C37.6371 41.952 36.4614 41.7752 35.3351 41.6208C35.807 41.2136 36.191 40.7126 36.4632 40.1491C36.7354 39.5855 36.89 38.9714 36.9174 38.3449C37.054 38.2635 37.185 38.1729 37.3095 38.0737C37.8765 38.1742 38.4877 38.2812 39.1549 38.3955C39.0397 39.4931 39.1017 40.6023 39.3382 41.6799C39.1887 41.8388 39.0393 41.9967 38.8857 42.1546V42.1544Z" fill="#AA4C24"/>
<path d="M35.3349 41.6211C32.3163 41.2094 29.6655 40.9624 26.9764 40.8499C25.1801 40.3044 23.3536 39.8027 21.5217 39.8027C21.3663 39.8027 21.2118 39.8062 21.0566 39.8138C20.2664 39.8523 19.4209 39.9742 18.8301 40.4992C18.0228 40.5044 17.2136 40.5344 16.4024 40.5893C15.64 40.64 14.8455 40.7567 14.0706 40.7567C13.1785 40.7567 12.3126 40.6023 11.5503 40.0156C11.2631 39.7974 11.0027 39.5455 10.7745 39.265C12.069 38.8533 13.1624 38.5564 13.681 38.3935C18.134 36.992 20.8826 36.6968 23.4308 36.6968C24.7228 36.6968 25.9628 36.7723 27.3473 36.8187C28.8999 36.8693 30.1196 36.9584 31.2655 37.0898C32.0491 37.9089 32.9615 38.5704 34.06 38.789C34.3438 38.8451 34.6323 38.8735 34.9215 38.8738C35.6216 38.8803 36.3107 38.6982 36.918 38.3464C36.8904 38.9728 36.7356 39.5867 36.4633 40.15C36.1909 40.7134 35.8068 41.2141 35.3349 41.6211Z" fill="#BD5E2F"/>
<path d="M18.1373 43.9481C17.1518 43.7568 16.168 43.5555 15.1858 43.3443C13.7632 43.039 11.366 42.8743 9.40515 42.2874C12.3836 41.4538 15.4459 40.964 18.5335 40.8274C18.1806 41.3737 18.0058 42.018 18.0336 42.6699C18.0336 42.82 18.0403 42.9701 18.0524 43.1177C18.0762 43.3958 18.1043 43.672 18.1373 43.9481ZM37.3041 43.7715C35.8823 43.3331 34.454 42.9171 33.0192 42.5235C33.2713 42.49 33.5226 42.4437 33.773 42.3846C34.344 42.2533 34.8779 41.9922 35.3341 41.6212C36.4597 41.7756 37.6362 41.9522 38.8848 42.1548C38.3669 42.6915 37.8313 43.226 37.3041 43.7715Z" fill="#A0421E"/>
<path d="M33.0195 42.5235C32.0688 42.2636 31.1152 42.0148 30.1588 41.7772C29.1131 41.5172 28.0503 41.1759 26.9764 40.8508C29.6656 40.9641 32.3166 41.2094 35.335 41.622C34.8788 41.993 34.3449 42.2541 33.7738 42.3854C33.5222 42.4441 33.2707 42.4902 33.0195 42.5235Z" fill="#B25227"/>
<path d="M6.21106 38.9424C6.25396 38.5248 6.35634 38.1157 6.51501 37.7278C6.99626 36.5481 7.63702 35.4416 8.419 34.4398C13.4027 27.9044 21.543 24.3936 29.6723 24.3936C33.6891 24.3736 37.6591 25.2659 41.2888 27.0046C43.9639 28.3062 46.4167 30.0302 48.555 32.1117C48.2816 31.8449 48.0026 31.5841 47.7181 31.3294C46.0368 31.4057 44.4011 31.9061 42.9603 32.7851C39.8383 31.3879 36.5924 30.1329 33.2581 29.8395C33.2138 29.836 33.1698 29.8319 33.1256 29.8284C32.6961 29.4844 32.2477 29.1651 31.7827 28.872C31.1219 28.4732 30.3658 28.2647 29.5961 28.269C28.5834 28.269 27.5997 28.6249 27.0038 29.3438C25.6175 29.0672 24.2083 28.9256 22.7953 28.921C22.3294 28.921 21.8802 28.9381 21.4532 28.9708C18.1732 29.2246 14.8968 30.333 12.4052 32.558C11.295 33.5488 10.3841 34.8654 10.0946 36.2045C8.71603 37.2507 7.59739 38.166 6.21106 38.9424ZM41.641 28.1525C42.5629 28.1525 43.3778 28.3936 43.8327 29.4348C43.9956 29.8054 44.4567 30.0353 44.8861 30.0353C45.0871 30.0409 45.2844 29.9807 45.4488 29.8638C45.5362 29.7969 45.6152 29.7352 45.6874 29.6726C44.3047 28.6494 42.8323 27.7562 41.2886 27.0042C37.6589 25.2655 33.6889 24.3732 29.6721 24.3931C27.2947 24.394 24.9266 24.6922 22.6217 25.2811C23.0371 25.4389 23.4775 25.5186 23.9213 25.5161C24.3354 25.5161 24.7421 25.5135 25.1436 25.5135C26.6817 25.5135 28.152 25.5503 29.7086 25.9003C31.5922 26.325 33.3188 27.2907 35.182 27.8183C36.351 28.1634 37.5625 28.3396 38.7804 28.3417C39.0197 28.3417 39.2626 28.3357 39.5111 28.3227C40.2107 28.2852 40.9559 28.1523 41.641 28.1523V28.1525Z" fill="#C26534"/>
<path d="M10.0948 36.2032C10.3843 34.8651 11.2952 33.5476 12.4055 32.5567C14.8968 30.3317 18.1743 29.2233 21.4534 28.9695C21.8812 28.937 22.3294 28.9197 22.7955 28.9197C24.2085 28.9243 25.6178 29.0659 27.004 29.3425C26.9462 29.4112 26.8926 29.4834 26.8435 29.5587C22.9617 29.687 19.1613 30.7163 15.7363 32.5668C13.7564 33.6137 11.8689 34.8303 10.0948 36.2032Z" fill="#D37941"/>
<path d="M41.8848 38.8693C41.1021 38.7252 40.3882 38.6016 39.7814 38.5014L39.1549 38.3958C39.3362 36.6552 40.1607 35.0479 41.4637 33.8949C41.9274 33.4784 42.4284 33.1062 42.9602 32.7832C44.0874 33.2876 45.1987 33.8109 46.2919 34.3134C44.7929 35.8016 43.3239 37.3202 41.8848 38.8693Z" fill="#E78D4D"/>
<path d="M39.3382 41.6804C39.1017 40.6028 39.0397 39.4936 39.1548 38.396L39.7813 38.5016C40.3882 38.6029 41.102 38.7254 41.8847 38.8695C41.2192 39.5892 40.562 40.3157 39.9129 41.049C39.7262 41.2609 39.5346 41.4714 39.3382 41.6804Z" fill="#E28547"/>
<path d="M46.2919 34.3145C45.1985 33.8118 44.0874 33.2887 42.9602 32.7843C44.401 31.9053 46.0366 31.4049 47.7179 31.3286C48.0023 31.5833 48.2813 31.8441 48.5548 32.1109C48.3018 32.3527 48.0494 32.5954 47.7976 32.839C47.2934 33.328 46.7915 33.8199 46.2919 34.3145Z" fill="#EA9754"/>
<path d="M44.8863 30.0352C44.4568 30.0352 43.995 29.8052 43.8328 29.4346C43.3779 28.3934 42.563 28.1523 41.6412 28.1523C40.9561 28.1523 40.2108 28.2853 39.5115 28.3222C39.2627 28.3351 39.0201 28.3411 38.7807 28.3411C37.5629 28.3392 36.3514 28.1632 35.1824 27.8184C33.3191 27.291 31.5926 26.325 29.709 25.9003C28.1521 25.5504 26.6821 25.5135 25.1439 25.5135C24.7424 25.5135 24.3358 25.5162 23.9216 25.5162C23.4779 25.5186 23.0374 25.4389 22.6221 25.2811C24.927 24.6923 27.2951 24.3941 29.6725 24.3934C33.6893 24.3735 37.6592 25.2658 41.2889 27.0044C42.8327 27.7564 44.3051 28.6497 45.6877 29.6729C45.6156 29.7346 45.5366 29.7964 45.4492 29.8641C45.2846 29.9809 45.0872 30.0409 44.8863 30.0352Z" fill="#EA9754"/>
<path d="M37.3093 38.0741L36.929 38.0064C36.9306 37.6505 36.8973 37.2954 36.8296 36.9462C36.035 32.8632 32.0437 30.5472 27.8827 29.5366H28.0328C29.8621 29.5366 31.5599 29.6894 33.1259 29.8273C33.6759 30.2596 34.2056 30.7185 34.743 31.1638C34.8958 31.2916 35.047 31.4228 35.1998 31.5514C35.2202 31.5634 35.2585 31.591 35.3186 31.6338C37.5222 31.7161 39.0611 34.1583 38.4932 36.2452C38.3044 36.9681 37.8891 37.6097 37.3093 38.0741Z" fill="#E78D4D"/>
<path d="M36.9291 38.0065C34.5973 37.5904 33.0176 37.2903 31.2656 37.0887C30.5621 36.3129 29.9217 35.4811 29.3506 34.6012C29.1791 34.3507 29.0102 34.0985 28.8311 33.8541C28.7131 33.6912 28.6537 33.6098 28.6529 33.6098L28.7523 33.7487C28.6708 33.6509 27.9985 32.8635 27.9425 32.7855C27.8543 32.6964 27.7634 32.6148 27.6699 32.5317C27.6479 32.5189 27.6216 32.5034 27.5901 32.4845C27.4921 32.441 27.3983 32.3884 27.3099 32.3274C27.3049 32.3274 27.2989 32.325 27.2939 32.3239C26.7676 32.2278 26.4398 31.6652 26.4229 31.1676C26.3897 30.6001 26.5366 30.0367 26.8422 29.5593C27.1927 29.5456 27.5391 29.5382 27.8812 29.5371C32.0422 30.5475 36.0327 32.8635 36.8281 36.9467C36.8963 37.2957 36.9302 37.6507 36.9291 38.0065ZM28.0535 32.9032C28.0566 32.9062 28.0595 32.9093 28.0621 32.9127C28.0595 32.9093 28.0566 32.9062 28.0535 32.9032Z" fill="#ED9B58"/>
<path d="M36.9172 38.3454C36.924 38.233 36.9282 38.119 36.9291 38.0066L37.3094 38.0743C37.1849 38.1735 37.0539 38.2641 36.9172 38.3454Z" fill="#E28547"/>
<path d="M34.9218 38.8734C34.6325 38.873 34.344 38.8446 34.0602 38.7886C32.9617 38.5699 32.0493 37.9085 31.2657 37.0894C33.0178 37.2909 34.5974 37.5912 36.9292 38.0071C36.9292 38.1203 36.9241 38.2335 36.9174 38.3459C36.3103 38.6976 35.6215 38.8797 34.9218 38.8734Z" fill="#E99250"/>
<path d="M33.1255 29.8273C31.5603 29.6892 29.8625 29.5367 28.0324 29.5367H27.8823C27.5895 29.4654 27.2963 29.4008 27.0028 29.3427C27.5995 28.6238 28.5825 28.2679 29.5952 28.2679C30.3648 28.2636 31.1209 28.4721 31.7817 28.8709C32.2471 29.164 32.6957 29.4833 33.1255 29.8273Z" fill="#EA9754"/>
<path d="M26.8433 29.5589C26.8924 29.4836 26.946 29.4115 27.0038 29.3428C27.2966 29.4011 27.5898 29.4657 27.8833 29.5367C27.5411 29.5385 27.1945 29.5459 26.8433 29.5589Z" fill="#F0A45F"/>
<path d="M72.0848 22.0353C71.8419 20.7833 71.4282 19.5714 70.8558 18.4342C68.4034 13.7139 63.4776 19.5074 60.9905 21.4253C56.3861 24.9787 51.9817 28.7892 47.7979 32.8389C45.0739 35.4757 42.4247 38.2053 39.9138 41.0487C37.897 43.3338 35.247 45.4337 33.9319 48.254C33.5856 48.9978 33.2894 49.8357 33.5041 50.6283C33.7451 51.5195 34.572 52.1217 35.4124 52.4828C42.0384 55.3392 49.7137 54.9814 56.2634 52.083C67.411 47.1512 74.566 34.0888 72.0848 22.0353Z" fill="#C16341"/>
<path d="M56.9729 46.0139C56.1579 46.0147 55.3487 45.8755 54.58 45.6021C52.6947 44.9322 51.2389 43.1764 51.3467 41.1554C54.0358 38.9304 55.4686 37.7621 57.9728 35.0027C60.7562 31.9336 62.9063 30.0164 65.6904 23.4964C65.8576 23.1036 66.1911 22.3907 66.5833 21.4995C66.6147 21.4978 66.6444 21.4978 66.6766 21.4978C67.9319 21.4978 68.8819 22.4123 69.5619 23.602C69.4045 25.3742 69.1254 27.1331 68.7267 28.8662C66.9559 36.665 62.7091 40.7721 59.3648 44.0797C58.6519 44.7799 57.8887 45.4259 57.0815 46.0122C57.0442 46.0139 57.0077 46.0139 56.9729 46.0139Z" fill="#D27953"/>
<path d="M45.0265 46.3628C43.7006 45.8799 42.3691 45.4152 41.0319 44.9689C40.9683 44.9483 40.9045 44.9277 40.8418 44.9055C42.7482 43.485 44.5013 42.0277 45.7014 41.0111C50.3819 37.0482 53.5337 34.022 56.7083 30.4003C60.2684 26.3388 62.9948 23.1186 65.5499 17.6821C66.5023 17.0602 67.4648 16.6262 68.3545 16.6262C68.3732 16.6262 68.3918 16.6262 68.4105 16.6262C67.9088 18.2892 67.2988 19.9168 66.5846 21.4985C66.2109 21.5159 65.8431 21.5995 65.4981 21.7455C63.3973 22.6058 62.8012 24.0658 61.8498 25.9787C60.9861 27.7274 59.993 29.4078 58.879 31.0054C56.6396 34.2031 52.7384 36.2241 51.5262 40.1621C51.426 40.4841 51.3661 40.8176 51.348 41.1546C50.562 41.8039 49.6697 42.5442 48.6122 43.4397C47.684 44.2259 46.4279 45.2728 45.0265 46.3628Z" fill="#B85737"/>
<path d="M51.3469 41.1562C51.3651 40.8191 51.425 40.4857 51.5252 40.1637C52.7373 36.2257 56.6386 34.2047 58.8779 31.007C59.992 29.4093 60.9851 27.729 61.8488 25.9803C62.8004 24.0674 63.3971 22.6076 65.4971 21.7473C65.8421 21.6012 66.2098 21.5176 66.5835 21.5002C66.1913 22.3923 65.8579 23.106 65.6906 23.4971C62.9063 30.0171 60.7562 31.9342 57.973 35.0034C55.4688 37.7627 54.0369 38.931 51.3469 41.1562Z" fill="#C86A47"/>
<path d="M40.8417 44.9053C39.6669 44.5142 38.4878 44.1362 37.3044 43.7714C38.1906 42.8545 39.1031 41.9666 39.9121 41.0488C42.4238 38.2054 45.073 35.4758 47.7961 32.8391C51.98 28.7893 56.3844 24.9788 60.9888 21.4254C62.1457 20.5334 63.8299 18.8031 65.5471 17.6821C62.9928 23.1187 60.2664 26.3388 56.7055 30.4004C53.5309 34.022 50.3791 37.0482 45.6986 41.0112C44.5009 42.0277 42.7473 43.4849 40.8417 44.9053Z" fill="#AF4C2F"/>
<path d="M57.4595 51.5157C57.367 51.4746 57.2761 51.4359 57.1922 51.3965C55.4503 50.5876 53.6944 49.8114 51.9243 49.0678C53.7241 48.1958 55.449 47.1741 57.0811 46.0131C62.2506 45.9384 67.179 40.4496 69.2154 36.2464C70.4769 33.6422 71.228 30.6528 70.8843 27.7484C70.7036 26.295 70.2553 24.8886 69.5626 23.6018C69.7791 21.1856 69.7392 19.3884 70.1424 17.4104C70.4279 17.715 70.6681 18.0601 70.8554 18.4346C71.4279 19.5717 71.8415 20.7836 72.0845 22.0356C72.4127 23.6378 72.5777 25.2698 72.5769 26.906C72.5785 33.5084 69.9625 40.0471 65.6299 45.061C65.4008 45.326 65.1668 45.5868 64.9279 45.8433C62.7856 48.1607 60.2579 50.0806 57.4595 51.5157Z" fill="#CD724D"/>
<path d="M57.0809 46.0128C57.8882 45.4264 58.6514 44.7805 59.3643 44.0803C62.7088 40.7718 66.9556 36.6648 68.7261 28.8668C69.1248 27.1337 69.4039 25.3747 69.5614 23.6025C70.2541 24.8893 70.7024 26.2957 70.8831 27.7491C71.227 30.6535 70.4757 33.6429 69.2142 36.2471C67.1786 40.4492 62.2504 45.9383 57.0809 46.0128Z" fill="#DB865E"/>
<path d="M61.8581 61.5858C62.8387 60.7819 63.7043 59.8446 64.4301 58.8006C67.4071 54.3994 60.034 52.7164 57.1921 51.3962C51.9284 48.9502 46.5332 46.8044 41.0318 44.9688C37.4497 43.7723 33.8225 42.6862 30.1589 41.7779C27.2159 41.0479 24.1405 39.6661 21.0568 39.8145C20.2435 39.8541 19.3726 39.9817 18.7802 40.5462C18.1146 41.1784 17.9763 42.1983 18.0527 43.1195C18.6623 50.3728 22.5729 57.0567 28.1753 61.5446C37.7127 69.1831 52.4851 69.449 61.8581 61.5858Z" fill="#D17641"/>
<path d="M47.5754 62.7128C45.6215 62.7053 43.6744 62.4804 41.7693 62.042C37.919 60.1017 34.5592 56.8629 34.6822 52.6245C34.6901 52.3351 34.7242 52.0472 34.7841 51.7642C38.4181 53.3003 40.0902 54.0639 43.9066 55.0656C47.1007 55.9037 49.4588 56.7264 53.8721 56.7264C54.9671 56.7264 56.1894 56.6757 57.5824 56.5617C58.1258 56.5178 59.264 56.4707 60.6238 56.3558C60.8575 56.8426 60.9798 57.3763 60.9817 57.9174C60.9836 58.4584 60.865 58.993 60.6348 59.4815C58.5962 60.4327 56.4804 61.205 54.3109 61.7899C52.1158 62.3964 49.851 62.7068 47.5754 62.7128Z" fill="#DF8D53"/>
<path d="M60.6262 56.3544C60.4813 56.0588 60.3023 55.7815 60.0931 55.5283C58.9437 54.1208 57.2672 54.1267 55.6332 53.8702C53.7362 53.5769 51.8642 53.1379 50.0333 52.557C49.7014 52.4514 49.3712 52.3279 49.0426 52.19C52.9066 53.1061 56.2967 53.7572 60.5851 53.7572C61.2353 53.7572 61.9058 53.7426 62.6019 53.7109C63.612 54.2822 64.4574 54.9537 64.8632 55.7696C63.4638 56.0505 62.0489 56.2458 60.6262 56.3544ZM34.7865 51.7636C34.1397 51.49 33.4317 51.1932 32.6372 50.8646C32.8222 50.5001 32.9871 50.1255 33.1312 49.7426C33.4096 48.9085 33.5185 48.0263 33.4513 47.1487C34.7814 47.6891 36.0267 48.178 37.2167 48.625C36.6005 48.9247 36.0608 49.3637 35.6394 49.9079C35.218 50.4522 34.9262 51.0871 34.7865 51.7636Z" fill="#C96937"/>
<path d="M53.8741 56.7258C49.4609 56.7258 47.1028 55.9023 43.9086 55.065C40.0923 54.0631 38.4199 53.2997 34.7861 51.7635C34.9259 51.0872 35.2178 50.4524 35.6392 49.9083C36.0606 49.3642 36.6003 48.9254 37.2163 48.6257C40.5233 49.8857 43.9039 50.9387 47.3389 51.779C47.9195 51.9206 48.4856 52.0586 49.0426 52.1907C49.3712 52.3289 49.7013 52.4524 50.0333 52.5578C51.8642 53.1387 53.7363 53.5777 55.6332 53.871C57.2673 54.1275 58.9437 54.1215 60.0931 55.5291C60.3024 55.7823 60.4813 56.0596 60.6263 56.3552C59.2664 56.4711 58.1282 56.5183 57.5849 56.5611C56.1914 56.6751 54.9691 56.7258 53.8741 56.7258Z" fill="#D77E47"/>
<path d="M60.5852 53.7575C56.2968 53.7575 52.9065 53.1064 49.0427 52.1903C45.8314 50.8486 42.7163 48.2033 39.1239 48.2033H39.0577C38.4208 48.2073 37.7925 48.3516 37.2164 48.6261C36.0263 48.18 34.7811 47.6902 33.451 47.1498C33.4184 46.5308 33.3413 45.915 33.2202 45.3073C33.1495 44.8852 33.0566 44.4671 32.9417 44.055C32.9578 44.3295 32.9664 44.4668 32.9655 44.4668C32.9647 44.4668 32.9511 44.2609 32.9248 43.8475C32.9559 43.643 32.9576 43.435 32.9299 43.2299C32.8736 43.3581 32.8391 43.495 32.828 43.6349C32.8717 43.2999 32.9363 42.9682 33.0216 42.6416L33.1481 42.5592L33.0641 42.5359C33.0599 42.5419 33.0548 42.5479 33.0505 42.5541C33.054 42.5481 33.0572 42.5413 33.0615 42.5351C32.0964 42.2709 31.1287 42.0182 30.1584 41.7769C27.364 41.0829 24.4491 39.8022 21.5206 39.8022C21.3652 39.8022 21.2108 39.8057 21.0555 39.8134C20.8055 39.8237 20.5561 39.8472 20.3085 39.8838C20.5561 39.8472 20.8055 39.8237 21.0555 39.8134C21.211 39.8057 21.3654 39.8022 21.5206 39.8022C24.4483 39.8022 27.3632 41.0829 30.1584 41.7769C33.822 42.6862 37.4493 43.7722 41.0313 44.9678C46.5327 46.8038 51.9278 48.9499 57.1914 51.3962C58.514 52.0103 60.816 52.7027 62.601 53.7106C61.9059 53.7423 61.2353 53.7575 60.5852 53.7575Z" fill="#C25E2F"/>
<path d="M49.0425 52.1897C48.4857 52.0586 47.9193 51.9205 47.3387 51.778C43.9037 50.9378 40.5232 49.8847 37.2162 48.6247C37.7922 48.3503 38.4206 48.206 39.0574 48.2019H39.1236C42.7161 48.2027 45.8314 50.8481 49.0425 52.1897Z" fill="#CF703C"/>
<path d="M45.2586 67.3786C39.1427 67.3786 32.9911 65.4022 28.1757 61.5431C26.1718 59.9379 24.395 58.0628 22.895 55.97C24.5336 56.3361 26.2441 56.1813 27.7921 55.5266C30.5364 57.5853 33.4336 59.5334 36.6269 60.5617C38.1905 61.0644 39.8916 61.6203 41.7709 62.0415C43.6339 62.9861 45.6302 63.6342 47.689 63.9628C48.6178 64.1033 49.5554 64.1752 50.4945 64.1782C52.8883 64.1817 55.2534 63.6512 57.4211 62.6247C58.8029 61.9849 60.0542 60.8225 60.6372 59.4801C62.1965 58.7698 63.48 58.1308 64.9918 57.6839C64.8587 58.0814 64.6697 58.4575 64.4308 58.8007C63.7049 59.8447 62.8393 60.7821 61.8588 61.5859C57.218 65.4786 51.2558 67.3794 45.2586 67.3786Z" fill="#DB864D"/>
<path d="M50.4943 64.1781C49.5553 64.1752 48.6176 64.1032 47.6889 63.9627C45.63 63.6341 43.6338 62.986 41.7708 62.0414C43.6759 62.4797 45.623 62.7046 47.5768 62.7121C49.8531 62.706 52.1186 62.3954 54.3141 61.7884C56.4837 61.2035 58.5995 60.4312 60.6381 59.48C60.055 60.8224 58.8046 61.9848 57.4219 62.6246C55.254 63.6513 52.8885 64.1817 50.4943 64.1781Z" fill="#E69A5E"/>
<path d="M27.792 55.5265C26.753 54.7477 25.7378 53.9532 24.7361 53.1872C22.3059 51.3293 20.2017 48.2645 18.4548 45.9082C18.2674 44.9868 18.1336 44.0551 18.0541 43.1179C18.0422 42.9703 18.0353 42.8202 18.0353 42.6701C18.0345 42.4617 18.0487 42.2536 18.0777 42.0474C19.6726 43.9275 21.5648 45.4785 22.9874 46.3088C26.0866 48.1204 29.8936 49.7365 32.1463 50.661C32.3136 50.7306 32.4774 50.7975 32.6379 50.8636C31.5354 53.0415 29.8078 54.6824 27.792 55.5265Z" fill="#F5B16E"/>
<path d="M32.6369 50.8646C32.4764 50.7985 32.3126 50.7316 32.1453 50.662C29.8926 49.7375 26.0854 48.1223 22.9864 46.3098C21.5638 45.4785 19.6716 43.9277 18.0767 42.0483C18.1346 41.4809 18.3829 40.9507 18.7803 40.5455C19.2113 40.1723 19.7451 39.9415 20.3099 39.8843C21.3499 40.9106 22.5028 41.8131 23.746 42.5743C26.8453 44.386 30.6522 46.002 32.905 46.9268C33.0883 47.0023 33.2717 47.076 33.4508 47.1497C33.518 48.0273 33.4091 48.9096 33.1307 49.7436C32.9866 50.1262 32.8218 50.5004 32.6369 50.8646Z" fill="#F2AA67"/>
<path d="M33.4513 47.1492C33.2714 47.0755 33.0889 47.0016 32.9056 46.9263C30.6528 46.0015 26.8456 44.3855 23.7466 42.5738C22.5034 41.8126 21.3505 40.91 20.3104 39.8838C20.5581 39.8472 20.8074 39.8237 21.0575 39.8134C21.2129 39.8057 21.3673 39.8022 21.5226 39.8022C24.4503 39.8022 27.3651 41.0829 30.1604 41.7769C31.1307 42.0179 32.0983 42.2707 33.0634 42.5351C33.0592 42.5411 33.0557 42.5481 33.0524 42.5541C33.0567 42.5481 33.0618 42.5421 33.0661 42.5359L33.15 42.5592L33.0235 42.6416C32.9382 42.9682 32.8736 43.2999 32.83 43.6349C32.8411 43.495 32.8755 43.3581 32.9318 43.2299C32.9596 43.435 32.9578 43.643 32.9267 43.8475C32.9531 44.2601 32.9667 44.4665 32.9675 44.4668C32.9675 44.4668 32.9597 44.3286 32.9437 44.055C33.0585 44.4671 33.1515 44.8852 33.2221 45.3073C33.3427 45.9148 33.4193 46.5304 33.4513 47.1492Z" fill="#F1A561"/>
<path d="M24.6528 56.1639C24.0616 56.1637 23.4722 56.0987 22.8949 55.9699C20.7263 52.9716 19.2125 49.542 18.4537 45.9082C20.2007 48.2646 22.3041 51.3293 24.7351 53.1872C25.7376 53.9533 26.7536 54.7475 27.7909 55.5265C26.7966 55.9456 25.7302 56.1622 24.6528 56.1639Z" fill="#F7BB77"/>
</svg>
