<svg width="95" height="80" viewBox="0 0 95 80" fill="none" xmlns="http://www.w3.org/2000/svg">
<path d="M78.4147 26.4473C80.9212 20.0395 74.7929 14.9189 62.9916 9.80026C53.5359 5.69962 42.0376 4.91339 44.4025 9.65643C49.1465 19.1727 57.0929 35.4574 68.8155 35.38C73.7312 35.3481 76.677 30.889 78.4147 26.4473Z" fill="#292825"/>
<path d="M78.6365 25.8104C77.4374 24.4526 76.7697 22.6202 75.6706 21.1308C74.4615 19.4944 73.1532 17.8568 71.5652 16.5757C67.72 13.4799 63.2531 11.2688 58.4756 10.0963C54.6793 9.154 51.5141 8.82031 48.0502 6.83259C47.8361 6.71009 47.6188 6.58341 47.4006 6.45381C47.8017 6.41706 48.233 6.39966 48.6888 6.39966C52.4781 6.39966 58.0191 7.64012 62.9935 9.79714C73.031 14.1511 78.9651 18.5061 78.9711 23.6541C78.9678 24.3858 78.855 25.1128 78.6365 25.8104Z" fill="#383733"/>
<path d="M62.8649 24.4293C62.9467 24.3425 63.0264 24.2558 63.1042 24.1691C63.2568 24.2517 63.4123 24.3276 63.5709 24.3967C63.3348 24.4058 63.0984 24.417 62.8649 24.4293ZM54.7316 15.9663C53.3011 15.6111 51.8323 15.2752 50.3451 14.9782C48.9753 12.5465 47.6507 10.073 45.8556 8.00367C45.6978 7.82972 45.5053 7.69148 45.2908 7.59804C45.0763 7.50459 44.8447 7.45805 44.6111 7.46148C44.5779 7.46148 44.5435 7.46148 44.51 7.46466C44.9435 7.01042 45.6961 6.70809 46.6851 6.54492C46.784 6.6123 46.881 6.67868 46.976 6.74508C49.5612 8.50519 51.9583 10.5323 54.1283 12.7938C53.91 13.2254 53.8181 13.7111 53.8634 14.1937C53.9086 14.6763 54.0892 15.1359 54.3839 15.5185C54.5003 15.6672 54.6166 15.8174 54.7318 15.9663H54.7316Z" fill="#22211F"/>
<path d="M50.3454 14.9783C49.1634 14.7424 47.9693 14.5312 46.7772 14.3546C45.9114 12.6866 45.1205 11.093 44.4031 9.65463C44.2115 9.30281 44.1042 8.91052 44.0898 8.50923C44.0874 8.31566 44.1234 8.12356 44.1955 7.94423C44.2677 7.7649 44.3746 7.60198 44.51 7.46503C44.5432 7.46307 44.5776 7.46185 44.6111 7.46185C44.8447 7.45842 45.0763 7.50495 45.2908 7.59839C45.5053 7.69184 45.6978 7.83007 45.8556 8.00403C47.651 10.0731 48.9755 12.5467 50.3454 14.9783Z" fill="#1C1B1A"/>
<path d="M67.4525 24.4101C67.2152 24.3988 66.9766 24.3897 66.7392 24.3824C65.8735 23.8918 65.036 23.3519 64.2308 22.7654C64.2774 22.698 64.3227 22.6316 64.3661 22.5652C64.9368 21.6986 65.252 20.9094 65.253 20.2457C65.2549 19.4005 64.7439 18.7605 63.6043 18.4266C61.7981 17.8988 59.7847 17.3047 57.6429 16.7228C56.7732 15.7815 55.9356 14.8292 55.1245 13.893C54.8003 13.5183 54.469 13.1515 54.1305 12.7924C54.3156 12.3881 54.6099 12.0447 54.9794 11.8016C55.349 11.5586 55.7788 11.4258 56.2197 11.4185C56.5032 11.4202 56.7843 11.4706 57.0511 11.5674C61.6506 13.1935 68.506 14.3605 69.6627 20.0936C70.0671 22.1061 69.0042 23.6915 67.4525 24.4101Z" fill="#2D2C29"/>
<path d="M63.5712 24.3966C63.4126 24.3272 63.2571 24.2513 63.1045 24.169C63.4005 23.8424 63.6692 23.5207 63.9097 23.2074C64.0238 23.0584 64.1312 22.9114 64.2319 22.7664C65.037 23.353 65.8745 23.8928 66.7403 24.3834C66.2796 24.3692 65.819 24.3631 65.3615 24.3631C64.7592 24.3619 64.1611 24.3731 63.5712 24.3966ZM57.6432 16.7238C56.6957 16.4666 55.7228 16.2125 54.7319 15.9663C54.6167 15.8173 54.5006 15.6681 54.3854 15.5182C54.0907 15.1356 53.9102 14.6761 53.8649 14.1934C53.8196 13.7108 53.9115 13.2251 54.1299 12.7935C54.4693 13.1528 54.8006 13.5197 55.1239 13.894C55.9359 14.8302 56.7733 15.7825 57.6432 16.7238Z" fill="#272623"/>
<path d="M89.2797 35.6425C89.7314 28.7782 82.3628 25.7974 69.6006 24.5621C59.3771 23.574 48.2083 26.3639 51.8853 30.1451C59.2651 37.7321 71.7249 50.7683 82.8465 47.0881C87.5098 45.5448 88.9667 40.3985 89.2797 35.6425Z" fill="#474640"/>
<path d="M89.299 34.9708C87.7502 34.0491 86.5644 32.5126 85.0692 31.4356C83.4275 30.2525 81.6889 29.0987 79.7939 28.3689C75.9653 26.8977 71.9027 26.1462 67.8066 26.1516C67.0055 26.1516 66.2027 26.1798 65.3983 26.2363C63.6424 26.3588 62.0473 26.56 60.4663 26.668C61.3099 25.9716 62.1108 25.224 62.8646 24.4294C63.682 24.3846 64.5184 24.3621 65.3619 24.3621C66.7662 24.3621 68.1935 24.4262 69.6019 24.5622C81.9384 25.7566 89.2352 28.5823 89.299 34.9708Z" fill="#5D5C55"/>
<path d="M78.5131 43.798C77.3235 43.7884 76.1397 43.6306 74.9883 43.3283C69.6119 37.5626 63.1244 31.9897 56.3983 30.8647C56.1286 30.629 55.8578 30.3972 55.5829 30.1684C56.5437 29.5713 57.4619 28.9536 58.3258 28.3289C60.0625 29.0513 61.7437 29.903 63.3557 30.8769C64.0103 31.275 64.677 31.6764 65.3549 32.0733C65.3939 32.4355 65.5106 32.7849 65.6967 33.097C65.8829 33.409 66.1341 33.6764 66.4329 33.8804C68.19 35.1356 70.0502 36.2367 71.993 37.1716C73.9964 38.1026 76.147 39.5217 78.3989 39.5217C78.5111 39.5217 78.6222 39.5187 78.7342 39.5114C79.3928 39.4698 80.0347 39.2845 80.6156 38.9682C81.1965 38.6518 81.7027 38.212 82.0992 37.679C83.743 37.6297 85.3703 37.3324 86.9272 36.797C87.3363 36.6558 87.7658 36.584 88.1981 36.5845C88.533 36.5852 88.8666 36.6256 89.1921 36.7051C89.1001 37.628 88.9523 38.5444 88.7497 39.4491C86.4747 40.3292 84.5552 42.3463 82.2258 43.1712C81.0325 43.5921 79.7769 43.804 78.5131 43.798Z" fill="#3D3C36"/>
<path d="M78.8904 47.7292C77.672 46.2969 76.3669 44.8055 74.9888 43.3282C76.1402 43.6305 77.324 43.7882 78.5136 43.7978C79.7765 43.8028 81.031 43.5901 82.2231 43.1689C84.5526 42.344 86.4721 40.3268 88.747 39.4468C87.9632 42.882 86.268 45.9549 82.8452 47.088C81.568 47.5084 80.2336 47.7247 78.8904 47.7292ZM56.399 30.8648C55.8509 30.7726 55.2981 30.7113 54.7433 30.681C55.0261 30.5126 55.3063 30.3418 55.5839 30.1685C55.8586 30.397 56.1291 30.6288 56.399 30.8648Z" fill="#34332E"/>
<path d="M81.526 37.6883C75.8638 37.6883 70.3227 34.9851 65.3563 32.0735C65.2029 30.726 66.0818 29.3049 67.7011 29.3049C67.7254 29.3049 67.7496 29.3049 67.7758 29.3049C68.1484 29.3152 68.5325 29.3182 68.9255 29.3182C69.3377 29.3182 69.7569 29.314 70.1863 29.3111C70.6156 29.3081 71.046 29.303 71.4834 29.303C75.6628 29.303 80.1772 29.6399 82.3351 33.5303C82.7092 34.1668 82.8868 34.9017 82.845 35.6408C82.8032 36.3799 82.544 37.0896 82.1006 37.679C81.9088 37.6851 81.7171 37.6883 81.526 37.6883Z" fill="#4E4D46"/>
<path d="M78.3991 39.5216C76.1472 39.5216 73.9966 38.1038 71.9932 37.1715C70.0507 36.2366 68.1909 35.1356 66.434 33.8804C66.1354 33.6763 65.8844 33.4089 65.6984 33.0969C65.5125 32.7849 65.396 32.4356 65.3571 32.0735C70.3232 34.9849 75.8645 37.6892 81.5267 37.6883C81.7178 37.6883 81.9095 37.6851 82.1006 37.679C81.7041 38.212 81.1979 38.6518 80.617 38.9681C80.0361 39.2845 79.3942 39.4698 78.7356 39.5113C78.6224 39.5187 78.5113 39.5216 78.3991 39.5216Z" fill="#44433C"/>
<path d="M10.1107 23.5424C12.1635 30.1014 20.0997 30.1678 32.4316 26.6234C42.3096 23.7833 51.7066 17.0743 46.9191 14.906C37.3129 10.5542 21.0118 2.99683 11.9795 10.5153C8.19216 13.6687 8.68919 18.9976 10.1107 23.5424Z" fill="#474640"/>
<path d="M16.7618 8.00377C18.0773 7.62952 19.4313 7.41057 20.7967 7.35132C19.4402 7.48786 18.0928 7.70574 16.7618 8.00377Z" fill="#3D3C36"/>
<path d="M15.2446 28.4639C12.8836 27.7881 11.2228 26.4039 10.335 24.1743C12.11 24.4632 13.7676 25.4577 15.5477 25.9119C17.1663 26.3581 18.8219 26.6539 20.4937 26.7959C18.7151 27.2542 16.9627 27.8111 15.2446 28.4639Z" fill="#5D5C55"/>
<path d="M9.81166 22.5205C9.56471 21.6274 9.3724 20.7199 9.23584 19.8029C11.037 18.1459 12.0968 15.5614 13.9707 13.936C16.4386 11.7922 19.4622 11.0727 22.6415 10.9715C22.8466 10.9654 23.0524 10.9624 23.2588 10.9624C27.0331 10.9624 31.0173 12.0333 34.6037 13.0276C35.4918 13.2726 36.3694 13.5707 37.2435 13.8912C34.2189 14.1259 31.3892 14.8119 28.9516 16.1452C27.8623 15.9556 26.7636 15.8262 25.6603 15.7574C24.3782 15.6819 22.9914 15.4705 21.6417 15.4705C20.577 15.4343 19.5176 15.635 18.5383 16.0585C17.9397 16.3391 17.4086 16.7477 16.9817 17.2561C16.5547 17.7644 16.242 18.3603 16.0652 19.0027C14.5519 19.6541 13.1433 20.5301 11.8858 21.6017C11.2948 22.1009 10.5754 22.4195 9.81166 22.5205Z" fill="#3D3C36"/>
<path d="M9.23606 19.803C9.11934 19.0263 9.05961 18.2418 9.05737 17.4562C9.05737 14.802 9.82716 12.3069 11.9799 10.5144C13.3859 9.35377 15.0141 8.49913 16.7623 8.0041C18.0933 7.70607 19.4406 7.48821 20.7972 7.35166C21.1679 7.33231 21.5437 7.323 21.9217 7.323C29.6881 7.323 38.6751 11.1818 45.2517 14.1496C43.4405 13.922 41.6175 13.8037 39.7924 13.7953C38.9307 13.7953 38.081 13.8269 37.2435 13.8901C36.3706 13.5696 35.4917 13.2724 34.6036 13.0265C31.0173 12.0322 27.033 10.9613 23.2588 10.9613C23.0527 10.9613 22.8469 10.9643 22.6415 10.9704C19.4622 11.0726 16.4388 11.7921 13.9707 13.9349C12.0982 15.5613 11.0375 18.1461 9.23606 19.803Z" fill="#34332E"/>
<path d="M22.0805 24.6039C20.3559 24.6443 18.6742 24.0586 17.3405 22.953C16.7631 22.4974 16.3334 21.8781 16.1063 21.1743C15.8792 20.4705 15.865 19.7143 16.0657 19.0023C18.9548 17.7496 22.1229 17.3086 25.3444 17.3086C25.9272 17.3086 26.5115 17.3222 27.0971 17.3495C26.4322 17.8577 25.8144 18.4259 25.2513 19.0471C23.8831 20.5581 23.0936 22.5129 23.0248 24.5598C22.7087 24.5874 22.3935 24.6039 22.0805 24.6039Z" fill="#4E4D46"/>
<path d="M16.0656 19.0025C16.2423 18.3601 16.555 17.7641 16.982 17.2558C17.4089 16.7475 17.94 16.3389 18.5386 16.0582C19.5179 15.6348 20.5774 15.434 21.642 15.4702C22.9917 15.4702 24.3788 15.6814 25.6606 15.7571C26.7639 15.8259 27.8626 15.9554 28.9519 16.145C28.3045 16.4987 27.6844 16.9014 27.0971 17.3497C26.5112 17.323 25.927 17.3094 25.3445 17.3087C22.123 17.3087 18.9549 17.7498 16.0656 19.0025Z" fill="#44433C"/>
<path d="M25.1916 33.389C28.3891 40.1511 36.9627 39.0057 49.7329 33.291C59.9644 28.7135 69.0959 20.0362 63.6053 18.4295C52.5888 15.2076 33.8675 9.5522 25.2522 19.0491C21.6387 23.0314 22.9751 28.703 25.1916 33.389Z" fill="#33322E"/>
<path d="M30.0333 15.6062C31.3981 15.0006 32.8276 14.5566 34.2935 14.2832C32.8487 14.6384 31.4261 15.0801 30.0333 15.6062Z" fill="#2B2A26"/>
<path d="M47.318 32.8585C47.312 32.8217 47.3049 32.785 47.2989 32.7492C47.2826 32.6654 47.2666 32.5809 47.2504 32.4961C49.1962 31.6367 51.0661 30.6115 52.8399 29.4316C56.3928 27.0715 58.9982 24.7694 63.13 23.4515C63.3856 23.3699 63.6456 23.2882 63.91 23.2065C63.6695 23.5199 63.4009 23.8416 63.1048 24.1682C63.0271 24.2549 62.9473 24.3417 62.8655 24.4286C62.1117 25.2232 61.3108 25.9708 60.4672 26.6672C59.8046 27.2217 59.0871 27.7778 58.3275 28.3281C57.4637 28.9529 56.5455 29.5705 55.5847 30.1676C55.308 30.3401 55.0278 30.5109 54.7441 30.6802C54.4885 30.6658 54.2333 30.6586 53.9784 30.6586C52.9086 30.6571 51.8424 30.7842 50.8023 31.0374C49.51 31.3448 48.3131 31.9704 47.318 32.8585Z" fill="#45443F"/>
<path d="M25.9001 25.6879C26.482 24.5273 27.0882 23.3819 27.9125 22.4335C30.2531 19.7436 33.4072 18.5041 36.8226 17.906C38.2997 17.6598 39.7948 17.5416 41.2918 17.5527C44.2344 17.5527 47.2411 17.9273 50.0363 18.2909C54.6369 18.8892 59.1991 20.6859 63.8319 20.8196C63.8471 20.8196 63.8622 20.8196 63.8774 20.8196C64.1423 20.8135 64.4025 20.7489 64.64 20.6304C64.8776 20.5119 65.0866 20.3423 65.2524 20.1336C65.2543 20.1713 65.2553 20.2071 65.2553 20.2458C65.2553 20.9093 64.9401 21.6985 64.3684 22.5653C64.2421 22.5959 64.118 22.6255 63.9936 22.653C60.6928 23.4324 57.3207 23.8621 53.9318 23.9351C53.7527 23.4398 53.4375 23.0063 53.0233 22.6856C52.6091 22.3648 52.113 22.17 51.5931 22.124C50.0969 21.9912 48.6221 21.8984 47.139 21.8984C46.2885 21.8984 45.4358 21.929 44.5741 21.9996C42.0596 22.2068 39.1087 21.9903 36.9368 23.4164C36.3914 23.775 35.92 24.2371 35.5488 24.7772C35.4205 24.7752 35.2901 24.7752 35.1609 24.7752C32.4684 24.7764 29.3723 25.0979 25.9001 25.6879Z" fill="#2B2A26"/>
<path d="M23.0541 26.2117C23.0248 25.8606 23.0088 25.5125 23.0088 25.1653C23.0088 24.9622 23.0149 24.7601 23.025 24.5589C23.0938 22.5121 23.8833 20.5573 25.2515 19.0463C25.8146 18.4251 26.4324 17.8569 27.0973 17.3487C28.0069 16.6563 28.9918 16.0713 30.0329 15.605C31.4257 15.0789 32.8482 14.6371 34.293 14.282C36.1066 13.9453 37.9477 13.7823 39.7916 13.7951C47.9785 13.7951 57.1241 16.5321 63.6046 18.4277C64.6956 18.7462 65.2089 19.3455 65.2513 20.1346C65.0855 20.3434 64.8765 20.5129 64.639 20.6314C64.4015 20.7499 64.1412 20.8145 63.8764 20.8206C63.8613 20.8206 63.8461 20.8206 63.831 20.8206C59.2002 20.6869 54.637 18.8903 50.0355 18.292C47.2402 17.9286 44.2338 17.5538 41.2909 17.5538C39.794 17.5426 38.2988 17.6608 36.8218 17.9071C33.4064 18.5054 30.2513 19.7446 27.9117 22.4345C27.0873 23.3829 26.4812 24.5283 25.8993 25.6889C24.9963 25.8421 24.0678 26.013 23.114 26.2015L23.0541 26.2117Z" fill="#242320"/>
<path d="M46.7506 30.5125C45.5182 27.0518 42.4136 25.3184 37.704 24.8855C41.166 24.0698 44.8493 23.8564 48.4315 23.8564C49.7488 23.8564 51.052 23.8861 52.3261 23.9238C52.6959 23.9351 53.0663 23.9406 53.4372 23.9402C53.6018 23.9402 53.7655 23.9402 53.9301 23.9371C54.176 24.5322 54.1894 25.1994 53.9676 25.8041C53.7458 26.4089 53.3054 26.9061 52.7351 27.1956C50.9017 28.1727 48.868 29.4805 46.7506 30.5125Z" fill="#383733"/>
<path d="M37.7034 24.8858C37.0185 24.8224 36.2992 24.7866 35.5455 24.7785C35.9167 24.2384 36.3881 23.7762 36.9336 23.4177C39.1067 21.9915 42.0573 22.2081 44.5708 22.0009C45.4325 21.9303 46.2852 21.8997 47.1357 21.8997C48.6188 21.8997 50.0937 21.9925 51.5898 22.1253C52.1097 22.1713 52.6058 22.3661 53.02 22.6869C53.4343 23.0076 53.7494 23.4411 53.9285 23.9364C53.7639 23.9384 53.6002 23.9396 53.4356 23.9396C53.0648 23.9396 52.6944 23.9341 52.3245 23.9232C51.0506 23.8854 49.7474 23.8558 48.4299 23.8558C44.8496 23.8555 41.1663 24.0709 37.7034 24.8858Z" fill="#302F2B"/>
<path d="M47.0672 31.6131C45.4347 24.3016 36.8245 23.4941 23.1158 26.1985C12.1348 28.3668 1.32437 34.7776 6.32399 37.5758C16.3574 43.1905 33.3676 52.9069 43.8557 45.5813C48.253 42.5087 48.1975 36.6785 47.0672 31.6131Z" fill="#3A3934"/>
<path d="M7.07629 32.8471C10.2282 30.2297 16.641 27.4763 23.1145 26.1994C27.7313 25.2877 31.7701 24.7764 35.1574 24.7764C41.4956 24.7764 45.5606 26.57 46.88 30.9047C44.9796 30.4269 43.2694 29.1938 41.3782 28.5362C39.3002 27.8144 37.1312 27.1529 34.929 26.9846C34.0108 26.9152 33.0941 26.8802 32.1791 26.8795C27.7587 26.885 23.3752 27.6929 19.2375 29.2649C15.2542 30.7675 12.2083 32.4274 7.89069 32.7858C7.62278 32.8074 7.35124 32.8277 7.07629 32.8471Z" fill="#4E4C46"/>
<path d="M41.2231 42.2067C37.3196 41.5616 32.9899 41.0091 28.8044 41.0091C26.491 40.9878 24.1811 41.1949 21.9076 41.6277C21.0973 41.3398 20.3004 41.0459 19.5214 40.757C15.1684 39.14 11.1153 36.3643 6.62799 35.1954C6.49593 35.1613 6.36013 35.1441 6.22382 35.1444C5.81416 35.149 5.41723 35.2888 5.09351 35.5426C5.2077 34.8656 5.69964 34.1286 6.48955 33.3701C6.59162 33.3701 6.69151 33.3701 6.79164 33.3701H6.87456C10.7943 33.3804 14.7351 33.757 18.5285 34.7514C19.3347 34.9626 20.1549 35.1731 20.9843 35.3752C21.1361 35.7413 21.3649 36.0696 21.6548 36.3374C21.9447 36.6052 22.2889 36.806 22.6633 36.9259C24.8834 37.6865 27.1637 38.2541 29.4794 38.6225C31.1766 38.8675 33.0294 39.3514 34.8053 39.3514C35.6329 39.3661 36.4565 39.2324 37.2379 38.9565C37.9131 38.707 38.5268 38.3125 39.0366 37.8002C39.5464 37.2879 39.9401 36.6699 40.1907 35.989C41.8926 35.4226 43.5011 34.6023 44.9629 33.5553C45.6503 33.0681 46.4609 32.7891 47.2997 32.751C47.3057 32.7877 47.3127 32.8245 47.3188 32.8602C45.2609 34.6845 44.083 37.495 43.4214 40.4157C42.9882 40.8811 42.5141 41.3058 42.005 41.6846C41.7477 41.8703 41.487 42.0443 41.2231 42.2067Z" fill="#31302C"/>
<path d="M17.0097 43.2302C13.0558 41.361 9.36739 39.2795 6.32267 37.5747C5.45784 37.0908 5.06604 36.4997 5.06604 35.8403C5.06675 35.7404 5.07584 35.6408 5.09319 35.5424C5.41712 35.2881 5.81454 35.1479 6.22472 35.1433C6.36103 35.143 6.49683 35.1601 6.62889 35.1943C11.1162 36.3642 15.1693 39.1408 19.5223 40.7559C20.3013 41.0447 21.0982 41.3387 21.9085 41.6266C20.2155 41.9516 18.5697 42.4903 17.0097 43.2302ZM43.0281 42.5145C42.4381 42.4105 41.8363 42.3074 41.2228 42.2053C41.4873 42.043 41.7477 41.8684 42.0037 41.6815C42.5128 41.3027 42.9869 40.878 43.4201 40.4126C43.3383 40.772 43.2642 41.132 43.1978 41.4926C43.1351 41.8343 43.0785 42.1753 43.0281 42.5157V42.5145Z" fill="#292925"/>
<path d="M32.8414 37.0941C28.8814 37.0941 24.8264 36.3133 20.9835 35.3739C20.4016 33.9926 20.9067 32.2001 22.6625 31.7234C25.8367 30.8658 29.6825 29.3101 33.2233 29.3101C35.3932 29.3101 37.448 29.8939 39.1633 31.5795C39.749 32.1275 40.1595 32.8396 40.3424 33.6246C40.5252 34.4097 40.472 35.2321 40.1896 35.9864C37.815 36.752 35.3338 37.126 32.8414 37.0941Z" fill="#403F39"/>
<path d="M34.8039 39.3502C33.028 39.3502 31.1751 38.8673 29.478 38.6213C27.1623 38.253 24.882 37.6853 22.6619 36.9247C22.2875 36.8048 21.9433 36.604 21.6534 36.3362C21.3634 36.0684 21.1347 35.7401 20.9829 35.374C24.8258 36.3131 28.8808 37.0942 32.8408 37.0942C35.3331 37.1264 37.8143 36.7527 40.189 35.9875C39.9385 36.6685 39.5447 37.2864 39.0349 37.7988C38.5251 38.3111 37.9115 38.7056 37.2362 38.955C36.4549 39.231 35.6314 39.3648 34.8039 39.3502Z" fill="#373632"/>
<path d="M43.013 42.6127C41.9523 49.8484 49.5107 53.645 62.9305 56.0592C73.6832 57.9906 85.7584 56 82.1812 51.6737C75.0027 42.9944 62.9002 28.0991 50.8018 31.0381C45.7285 32.2703 43.7483 37.5981 43.013 42.6127Z" fill="#292825"/>
<path d="M60.6928 32.1632C59.3317 31.6549 57.9418 31.2289 56.5306 30.8872C57.962 31.1493 59.3586 31.5775 60.6928 32.1632Z" fill="#22211F"/>
<path d="M71.2867 56.7985C69.1072 56.7964 66.9304 56.6467 64.7708 56.3504C63.9222 55.6235 63.0452 54.8968 62.1421 54.1863C63.9243 54.4737 65.725 54.6283 67.5296 54.6488C67.768 54.652 68.0041 54.6533 68.2378 54.653C68.9167 54.653 69.5784 54.6427 70.226 54.6327C70.8735 54.6226 71.5068 54.6133 72.1353 54.6133C74.4163 54.6133 76.6206 54.7439 79.0866 55.4789C79.3383 55.5544 79.5926 55.6311 79.8494 55.7117C77.7359 56.4178 74.68 56.7985 71.2867 56.7985Z" fill="#383733"/>
<path d="M80.5675 55.4439C80.4494 55.3991 80.3321 55.354 80.2169 55.3082C77.124 54.1202 74.1621 52.6093 71.3795 50.8001C71.5018 50.3006 71.4807 49.7762 71.3186 49.2883C71.1565 48.8005 70.8601 48.3695 70.4642 48.0458C68.7079 46.5636 66.8295 45.2358 64.8495 44.0767C62.7028 42.8578 60.4308 41.056 57.9023 41.0141H57.8194C56.8878 41.0148 55.9756 41.2836 55.1897 41.7891C53.4704 41.3113 51.6963 41.0642 49.9132 41.0541C48.4611 41.0521 47.0143 41.2332 45.6065 41.5931C45.2724 41.6788 44.9289 41.7221 44.5841 41.7217C44.1134 41.72 43.6459 41.6432 43.199 41.4941C43.3751 40.5251 43.6092 39.5678 43.9001 38.6275C46.3863 37.8925 48.5906 35.9193 51.1303 35.2465C52.1031 34.9884 53.1048 34.8584 54.1106 34.8596C56.3998 34.8596 58.6262 35.5131 60.786 36.4918C64.6257 38.2314 68.1413 41.3033 71.2752 44.085C74.6756 47.1057 77.3981 51.0738 81.0754 53.735C81.3641 53.9387 81.7084 54.0464 82.0605 54.0433C82.2411 54.0427 82.4207 54.0162 82.5939 53.9646C82.2554 54.5394 81.5513 55.0345 80.5675 55.4439Z" fill="#22211F"/>
<path d="M82.0599 54.0422C81.7079 54.0453 81.3637 53.9376 81.075 53.734C77.3978 51.0727 74.6743 47.1046 71.2749 44.084C68.1412 41.3022 64.6256 38.2284 60.7856 36.4908C58.6259 35.5108 56.3992 34.8586 54.1102 34.8586C53.1044 34.8573 52.1027 34.9874 51.13 35.2454C48.5903 35.9182 46.3859 37.8915 43.8998 38.6265C45.0221 35.0526 47.08 31.943 50.8036 31.0385C51.8437 30.7853 52.9099 30.6582 53.9797 30.6597C54.8352 30.6617 55.689 30.7379 56.5316 30.8873C57.9427 31.2289 59.3326 31.655 60.6937 32.1633C69.1927 35.8281 76.9815 45.3832 82.1843 51.6737C82.5633 52.0753 82.79 52.599 82.8246 53.1528C82.8242 53.4397 82.7447 53.7207 82.5952 53.9645C82.4213 54.0159 82.2411 54.0421 82.0599 54.0422Z" fill="#1C1B1A"/>
<path d="M68.9621 52.7979C68.8585 52.7975 68.755 52.7917 68.652 52.7805C65.297 52.4149 60.9976 52.4865 57.7012 51.0145C57.0727 50.6164 56.4393 50.2397 55.8008 49.8843C54.8413 49.1349 54.0785 48.159 53.5792 47.0422C52.6075 44.9036 53.5266 42.8607 55.1884 41.7888C60.5788 43.2517 65.6158 46.6625 70.0871 49.9056C70.5114 50.2138 70.9417 50.5122 71.3782 50.8008C71.2663 51.3648 70.9644 51.8721 70.5238 52.2363C70.0832 52.6005 69.5313 52.7989 68.9621 52.7979Z" fill="#2D2C29"/>
<path d="M71.3782 50.8009C70.9418 50.5119 70.5115 50.2135 70.0872 49.9056C65.6159 46.6625 60.5789 43.2518 55.1885 41.7889C55.9744 41.2834 56.8865 41.0146 57.8181 41.0139H57.901C60.4296 41.0568 62.7016 42.8586 64.8483 44.0765C66.8283 45.2355 68.7067 46.5634 70.463 48.0455C70.859 48.3693 71.1555 48.8005 71.3176 49.2885C71.4797 49.7766 71.5008 50.3012 71.3782 50.8009Z" fill="#272623"/>
<path d="M13.1801 60.5179C16.723 66.4296 24.4876 64.5911 35.6928 58.1752C44.6705 53.0342 52.2714 44.2325 47.088 43.2635C36.6868 41.3167 18.9989 37.8457 11.9465 47.3509C8.98855 51.3383 10.7252 56.4202 13.1801 60.5179Z" fill="#474640"/>
<path d="M16.022 43.7549C17.2202 43.0732 18.4925 42.534 19.8134 42.1482C18.5191 42.6071 17.2531 43.1437 16.022 43.7549Z" fill="#3D3C36"/>
<path d="M19.756 64.0997C17.0979 64.0997 15.0119 63.1532 13.545 61.081C13.746 61.0658 13.9461 61.0584 14.1483 61.0584C15.7577 61.0584 17.4032 61.5127 19.0429 61.5269C19.2228 61.5288 19.4025 61.5288 19.5824 61.5288C21.4381 61.5288 23.3324 61.437 25.1345 60.9776C29.6012 59.8348 33.7899 57.7824 37.4441 54.9463C37.3204 55.7145 37.2405 56.4893 37.2048 57.2667C36.7056 57.5802 36.2015 57.8823 35.6924 58.1733C29.158 61.9159 23.7947 64.1006 19.756 64.0997Z" fill="#5D5C55"/>
<path d="M12.6459 59.5917C12.1958 58.7786 11.795 57.9386 11.4458 57.0763C12.8157 55.0263 13.245 52.2497 14.6905 50.2142C16.5979 47.5294 19.3801 46.1032 22.4612 45.2406C25.1373 44.4923 28.0861 44.3127 30.9652 44.3127C32.2068 44.3127 33.4353 44.3463 34.6221 44.3811C38.4327 44.4943 42.3008 45.4836 46.1143 45.4836C46.5801 45.4836 47.0437 45.4694 47.5075 45.4366C47.7578 45.4125 47.9994 45.3317 48.2146 45.2002C48.4297 45.0687 48.6127 44.8899 48.75 44.6771C48.7653 44.7778 48.7728 44.8795 48.7724 44.9814C48.727 45.6907 48.5162 46.3792 48.157 46.9904C48.0438 47.0291 47.9318 47.0681 47.8207 47.1048C47.8138 47.1076 47.8068 47.11 47.7996 47.1119C47.3519 47.066 46.9021 47.0428 46.4521 47.0426C45.0369 47.0345 43.6325 47.2921 42.3103 47.8021C41.5922 48.078 40.9267 48.4773 40.3432 48.9823C39.3097 49.1466 38.2716 49.2664 37.2287 49.3417C36.463 49.3949 35.685 49.4529 34.9012 49.5203C34.6657 49.2488 34.3753 49.0316 34.0496 48.8833C33.7239 48.735 33.3704 48.6592 33.0132 48.6608H32.9838C30.822 48.6515 28.6634 48.8288 26.5314 49.1908C24.2432 49.6115 21.5146 49.685 19.6487 51.1917C19.1304 51.6095 18.7079 52.1359 18.4101 52.7345C18.1124 53.3332 17.9466 53.9899 17.9241 54.6595C16.6 55.6584 15.4308 56.8513 14.4551 58.1989C13.9952 58.8273 13.3676 59.3105 12.6459 59.5917Z" fill="#3D3C36"/>
<path d="M11.4457 57.0762C10.7885 55.5298 10.4295 53.8708 10.3879 52.1883C10.3613 50.4459 10.909 48.7439 11.9447 47.3505C13.0441 45.8809 14.4322 44.6568 16.022 43.755C17.2531 43.1438 18.5192 42.6072 19.8135 42.1483C22.5673 41.3234 25.6454 41.009 28.8043 41.009C35.2475 41.009 42.0292 42.3169 47.0853 43.2631C48.1147 43.4549 48.6399 43.9572 48.7502 44.678C48.6129 44.8908 48.4298 45.0696 48.2147 45.2011C47.9996 45.3326 47.7579 45.4134 47.5076 45.4375C47.0438 45.4701 46.5802 45.4845 46.1145 45.4845C42.3 45.4845 38.4317 44.4952 34.6222 44.382C33.4342 44.3472 32.2067 44.3137 30.9653 44.3137C28.0872 44.3137 25.1372 44.4932 22.4613 45.2415C19.3802 46.1041 16.5981 47.5303 14.6907 50.2151C13.2449 52.2496 12.8156 55.0265 11.4457 57.0762Z" fill="#34332E"/>
<path d="M23.1805 58.9292C22.1119 58.9299 21.0573 58.6836 20.0973 58.2094C19.4266 57.9032 18.8615 57.4017 18.4744 56.7692C18.0873 56.1367 17.8957 55.4019 17.9242 54.6587C22.6389 51.0868 28.9599 50.0333 34.9009 49.5198C35.8092 50.5559 35.886 52.2741 34.4888 53.2081C31.2198 55.3928 27.3042 58.9292 23.1805 58.9292Z" fill="#4E4D46"/>
<path d="M17.9252 54.659C17.9477 53.9894 18.1135 53.3326 18.4112 52.734C18.7089 52.1353 19.1314 51.609 19.6497 51.1912C21.5166 49.6844 24.2442 49.6109 26.5325 49.1902C28.6644 48.8282 30.8231 48.651 32.9849 48.6603H33.0142C33.3715 48.6586 33.7249 48.7344 34.0506 48.8827C34.3763 49.031 34.6667 49.2482 34.9022 49.5197C28.9609 50.0333 22.6399 51.0868 17.9252 54.659Z" fill="#44433C"/>
<path d="M37.1748 58.1266C37.0807 64.165 43.6725 66.4487 54.9173 66.9561C63.9244 67.3623 73.5941 64.4132 70.2039 61.2627C63.399 54.9435 51.8987 44.0746 42.3107 47.8016C38.2911 49.3658 37.2396 53.9424 37.1748 58.1266Z" fill="#D4B982"/>
<path d="M70.8025 63.0535C68.3253 61.7527 64.5249 59.6611 61.7791 58.0287C61.8131 57.7641 61.7882 57.4952 61.7062 57.2416C61.6242 56.988 61.4873 56.7561 61.3053 56.5628C60.2255 55.4358 59.5517 54.177 58.2504 53.2349C56.9639 52.2956 55.5835 51.4953 54.1317 50.8471C51.3818 49.6201 48.4098 49.2249 45.4439 48.9177C45.326 48.9048 45.2076 48.8984 45.0891 48.8983C43.3304 48.8983 42.499 50.3532 42.5817 51.8416C42.2665 51.9641 41.9421 52.0969 41.6148 52.2439C40.4287 52.7768 39.056 53.3464 37.7295 53.5772C38.3933 51.0169 39.7498 48.7996 42.3099 47.8022C43.6321 47.2922 45.0365 47.0346 46.4517 47.0427C55.0406 47.0427 64.3549 55.8332 70.2031 61.2632C70.6778 61.7042 70.896 62.1423 70.896 62.5669C70.8956 62.7336 70.8638 62.8987 70.8025 63.0535Z" fill="#E1CC9A"/>
<path d="M56.6088 66.9939C56.0451 66.9939 55.4795 66.9807 54.9177 66.9562C43.7508 66.452 37.1721 64.1967 37.1743 58.2505C37.1743 58.2095 37.1743 58.1689 37.1743 58.128C37.1852 57.3 37.2408 56.4733 37.3409 55.6515C37.4186 55.6351 37.4979 55.6269 37.5773 55.627C38.1167 55.627 38.7238 56.0209 39.7109 57.0573C43.6791 61.2241 51.0668 62.6348 54.7875 63.1493C59.3941 63.7844 64.8282 63.6506 69.0871 64.6377C66.5251 66.0313 61.5973 66.9939 56.6088 66.9939Z" fill="#C3A265"/>
<path d="M60.1155 59.7255C59.9205 59.724 59.7272 59.6892 59.5438 59.6223C57.2522 58.8361 55.0138 57.8997 52.8429 56.819C50.5093 55.64 48.0181 55.2326 45.4449 54.9702C43.6224 54.7845 42.6647 53.2971 42.584 51.8412C44.1012 51.2328 45.716 50.9107 47.3482 50.8909C52.5175 50.8909 56.1128 54.4863 60.1851 57.0547C60.6528 57.3487 61.1922 57.6785 61.7802 58.0286C61.6822 58.9106 61.0237 59.7255 60.1155 59.7255Z" fill="#E5D1A0"/>
<path d="M61.7787 58.0285C61.1908 57.6784 60.6513 57.3496 60.1836 57.0546C56.1104 54.4863 52.5161 50.8908 47.3467 50.8908C45.7145 50.9107 44.0998 51.2328 42.5825 51.8412C42.4996 50.3528 43.331 48.8979 45.09 48.8979C45.2085 48.898 45.3269 48.9045 45.4447 48.9173C48.4096 49.2246 51.3828 49.6197 54.1325 50.8467C55.5843 51.4949 56.9648 52.2952 58.2513 53.2345C59.5516 54.1768 60.2253 55.4344 61.3062 56.5624C61.488 56.7559 61.6247 56.9879 61.7065 57.2415C61.7882 57.4951 61.8129 57.764 61.7787 58.0285Z" fill="#EDDDB2"/>
</svg>
