<svg width="52" height="52" viewBox="0 0 52 52" fill="none" xmlns="http://www.w3.org/2000/svg">
<path fill-rule="evenodd" clip-rule="evenodd" d="M49.0859 16.423C54.3749 29.1726 48.327 43.7969 35.5773 49.0859C22.8265 54.3749 8.20317 48.3271 2.91412 35.5763C-2.37492 22.8267 3.67298 8.2036 16.4227 2.91461C29.1723 -2.37559 43.7968 3.67346 49.0859 16.423Z" stroke="#42774D" stroke-width="2"/>
<path fill-rule="evenodd" clip-rule="evenodd" d="M21.5145 27.5373L34.75 32.8741C34.4496 32.048 33.7257 30.2473 32.5019 28.2345C30.2918 24.6067 27.4856 22.0278 24.3835 20.7756C21.2791 19.5233 17.4239 19.4163 13.2325 20.4631C10.1147 21.2433 7.90911 22.3753 7.81722 22.4234C7.36445 22.6572 7.14703 23.173 7.29721 23.6494C7.32859 23.7478 8.06825 26.0665 9.71121 28.7655C11.919 32.3933 14.7275 34.9743 17.8296 36.2244C20.9317 37.4767 24.7869 37.5837 28.9784 36.5369C30.5227 36.1501 31.8429 35.6781 32.7932 35.2934C33.2752 35.0989 33.6607 34.9284 33.9341 34.7995L20.6986 29.4627C20.1517 29.2441 19.8939 28.6344 20.1181 28.1012C20.3445 27.5701 20.9698 27.3166 21.5145 27.5373Z" fill="#42774D"/>
<path fill-rule="evenodd" clip-rule="evenodd" d="M42.8247 15.3C42.5796 14.861 42.0392 14.6502 41.54 14.7958C41.2607 14.8784 34.6521 16.8539 32.479 21.8374C32.3943 22.0331 32.3187 22.2287 32.25 22.4243C33.2232 23.487 34.13 24.6824 34.9566 26.0059C35.2223 26.4276 35.465 26.8427 35.6871 27.2404L37.2305 23.7022C37.4595 23.1741 38.0983 22.922 38.6548 23.1415C39.2135 23.361 39.4769 23.9652 39.2479 24.4955L36.9465 29.7767C37.3702 30.7526 37.59 31.4111 37.6335 31.5437C37.7091 31.7762 37.7526 32.0131 37.7686 32.25C39.9234 31.1698 42.7239 29.2834 43.9971 26.3602C46.1702 21.3745 42.962 15.5456 42.8247 15.3Z" fill="#42774D"/>
</svg>
